<?xml version="1.0" encoding="utf-8" standalone="no"?>
<!DOCTYPE svg PUBLIC "-//W3C//DTD SVG 1.1//EN"
  "http://www.w3.org/Graphics/SVG/1.1/DTD/svg11.dtd">
<svg xmlns:xlink="http://www.w3.org/1999/xlink" width="720pt" height="360pt" viewBox="0 0 720 360" xmlns="http://www.w3.org/2000/svg" version="1.1">
 <metadata>
  <rdf:RDF xmlns:dc="http://purl.org/dc/elements/1.1/" xmlns:cc="http://creativecommons.org/ns#" xmlns:rdf="http://www.w3.org/1999/02/22-rdf-syntax-ns#">
   <cc:Work>
    <dc:type rdf:resource="http://purl.org/dc/dcmitype/StillImage"/>
    <dc:date>2025-07-24T01:19:23.110384</dc:date>
    <dc:format>image/svg+xml</dc:format>
    <dc:creator>
     <cc:Agent>
      <dc:title>Matplotlib v3.10.3, https://matplotlib.org/</dc:title>
     </cc:Agent>
    </dc:creator>
   </cc:Work>
  </rdf:RDF>
 </metadata>
 <defs>
  <style type="text/css">*{stroke-linejoin: round; stroke-linecap: butt}</style>
 </defs>
 <g id="figure_1">
  <g id="patch_1">
   <path d="M 0 360 
L 720 360 
L 720 0 
L 0 0 
z
" style="fill: #ffffff"/>
  </g>
  <g id="axes_1">
   <g id="patch_2">
    <path d="M 44.255 318.76 
L 698.500194 318.76 
L 698.500194 25.92 
L 44.255 25.92 
z
" style="fill: #ffffff"/>
   </g>
   <g id="matplotlib.axis_1">
    <g id="xtick_1">
     <g id="line2d_1">
      <path d="M 73.993418 318.76 
L 73.993418 25.92 
" clip-path="url(#p624c7b8a59)" style="fill: none; stroke: #b0b0b0; stroke-opacity: 0.2; stroke-width: 0.8; stroke-linecap: square"/>
     </g>
     <g id="line2d_2">
      <defs>
       <path id="m643b3b84b2" d="M 0 0 
L 0 3.5 
" style="stroke: #000000; stroke-width: 0.8"/>
      </defs>
      <g>
       <use xlink:href="#m643b3b84b2" x="73.993418" y="318.76" style="stroke: #000000; stroke-width: 0.8"/>
      </g>
     </g>
     <g id="text_1">
      <!-- 06-27 00 -->
      <g transform="translate(51.512949 333.358438) scale(0.1 -0.1)">
       <defs>
        <path id="DejaVuSans-30" d="M 2034 4250 
Q 1547 4250 1301 3770 
Q 1056 3291 1056 2328 
Q 1056 1369 1301 889 
Q 1547 409 2034 409 
Q 2525 409 2770 889 
Q 3016 1369 3016 2328 
Q 3016 3291 2770 3770 
Q 2525 4250 2034 4250 
z
M 2034 4750 
Q 2819 4750 3233 4129 
Q 3647 3509 3647 2328 
Q 3647 1150 3233 529 
Q 2819 -91 2034 -91 
Q 1250 -91 836 529 
Q 422 1150 422 2328 
Q 422 3509 836 4129 
Q 1250 4750 2034 4750 
z
" transform="scale(0.015625)"/>
        <path id="DejaVuSans-36" d="M 2113 2584 
Q 1688 2584 1439 2293 
Q 1191 2003 1191 1497 
Q 1191 994 1439 701 
Q 1688 409 2113 409 
Q 2538 409 2786 701 
Q 3034 994 3034 1497 
Q 3034 2003 2786 2293 
Q 2538 2584 2113 2584 
z
M 3366 4563 
L 3366 3988 
Q 3128 4100 2886 4159 
Q 2644 4219 2406 4219 
Q 1781 4219 1451 3797 
Q 1122 3375 1075 2522 
Q 1259 2794 1537 2939 
Q 1816 3084 2150 3084 
Q 2853 3084 3261 2657 
Q 3669 2231 3669 1497 
Q 3669 778 3244 343 
Q 2819 -91 2113 -91 
Q 1303 -91 875 529 
Q 447 1150 447 2328 
Q 447 3434 972 4092 
Q 1497 4750 2381 4750 
Q 2619 4750 2861 4703 
Q 3103 4656 3366 4563 
z
" transform="scale(0.015625)"/>
        <path id="DejaVuSans-2d" d="M 313 2009 
L 1997 2009 
L 1997 1497 
L 313 1497 
L 313 2009 
z
" transform="scale(0.015625)"/>
        <path id="DejaVuSans-32" d="M 1228 531 
L 3431 531 
L 3431 0 
L 469 0 
L 469 531 
Q 828 903 1448 1529 
Q 2069 2156 2228 2338 
Q 2531 2678 2651 2914 
Q 2772 3150 2772 3378 
Q 2772 3750 2511 3984 
Q 2250 4219 1831 4219 
Q 1534 4219 1204 4116 
Q 875 4013 500 3803 
L 500 4441 
Q 881 4594 1212 4672 
Q 1544 4750 1819 4750 
Q 2544 4750 2975 4387 
Q 3406 4025 3406 3419 
Q 3406 3131 3298 2873 
Q 3191 2616 2906 2266 
Q 2828 2175 2409 1742 
Q 1991 1309 1228 531 
z
" transform="scale(0.015625)"/>
        <path id="DejaVuSans-37" d="M 525 4666 
L 3525 4666 
L 3525 4397 
L 1831 0 
L 1172 0 
L 2766 4134 
L 525 4134 
L 525 4666 
z
" transform="scale(0.015625)"/>
        <path id="DejaVuSans-20" transform="scale(0.015625)"/>
       </defs>
       <use xlink:href="#DejaVuSans-30"/>
       <use xlink:href="#DejaVuSans-36" transform="translate(63.623047 0)"/>
       <use xlink:href="#DejaVuSans-2d" transform="translate(127.246094 0)"/>
       <use xlink:href="#DejaVuSans-32" transform="translate(163.330078 0)"/>
       <use xlink:href="#DejaVuSans-37" transform="translate(226.953125 0)"/>
       <use xlink:href="#DejaVuSans-20" transform="translate(290.576172 0)"/>
       <use xlink:href="#DejaVuSans-30" transform="translate(322.363281 0)"/>
       <use xlink:href="#DejaVuSans-30" transform="translate(385.986328 0)"/>
      </g>
     </g>
    </g>
    <g id="xtick_2">
     <g id="line2d_3">
      <path d="M 150.327325 318.76 
L 150.327325 25.92 
" clip-path="url(#p624c7b8a59)" style="fill: none; stroke: #b0b0b0; stroke-opacity: 0.2; stroke-width: 0.8; stroke-linecap: square"/>
     </g>
     <g id="line2d_4">
      <g>
       <use xlink:href="#m643b3b84b2" x="150.327325" y="318.76" style="stroke: #000000; stroke-width: 0.8"/>
      </g>
     </g>
     <g id="text_2">
      <!-- 06-27 12 -->
      <g transform="translate(127.846856 333.358438) scale(0.1 -0.1)">
       <defs>
        <path id="DejaVuSans-31" d="M 794 531 
L 1825 531 
L 1825 4091 
L 703 3866 
L 703 4441 
L 1819 4666 
L 2450 4666 
L 2450 531 
L 3481 531 
L 3481 0 
L 794 0 
L 794 531 
z
" transform="scale(0.015625)"/>
       </defs>
       <use xlink:href="#DejaVuSans-30"/>
       <use xlink:href="#DejaVuSans-36" transform="translate(63.623047 0)"/>
       <use xlink:href="#DejaVuSans-2d" transform="translate(127.246094 0)"/>
       <use xlink:href="#DejaVuSans-32" transform="translate(163.330078 0)"/>
       <use xlink:href="#DejaVuSans-37" transform="translate(226.953125 0)"/>
       <use xlink:href="#DejaVuSans-20" transform="translate(290.576172 0)"/>
       <use xlink:href="#DejaVuSans-31" transform="translate(322.363281 0)"/>
       <use xlink:href="#DejaVuSans-32" transform="translate(385.986328 0)"/>
      </g>
     </g>
    </g>
    <g id="xtick_3">
     <g id="line2d_5">
      <path d="M 226.661232 318.76 
L 226.661232 25.92 
" clip-path="url(#p624c7b8a59)" style="fill: none; stroke: #b0b0b0; stroke-opacity: 0.2; stroke-width: 0.8; stroke-linecap: square"/>
     </g>
     <g id="line2d_6">
      <g>
       <use xlink:href="#m643b3b84b2" x="226.661232" y="318.76" style="stroke: #000000; stroke-width: 0.8"/>
      </g>
     </g>
     <g id="text_3">
      <!-- 06-28 00 -->
      <g transform="translate(204.180763 333.358438) scale(0.1 -0.1)">
       <defs>
        <path id="DejaVuSans-38" d="M 2034 2216 
Q 1584 2216 1326 1975 
Q 1069 1734 1069 1313 
Q 1069 891 1326 650 
Q 1584 409 2034 409 
Q 2484 409 2743 651 
Q 3003 894 3003 1313 
Q 3003 1734 2745 1975 
Q 2488 2216 2034 2216 
z
M 1403 2484 
Q 997 2584 770 2862 
Q 544 3141 544 3541 
Q 544 4100 942 4425 
Q 1341 4750 2034 4750 
Q 2731 4750 3128 4425 
Q 3525 4100 3525 3541 
Q 3525 3141 3298 2862 
Q 3072 2584 2669 2484 
Q 3125 2378 3379 2068 
Q 3634 1759 3634 1313 
Q 3634 634 3220 271 
Q 2806 -91 2034 -91 
Q 1263 -91 848 271 
Q 434 634 434 1313 
Q 434 1759 690 2068 
Q 947 2378 1403 2484 
z
M 1172 3481 
Q 1172 3119 1398 2916 
Q 1625 2713 2034 2713 
Q 2441 2713 2670 2916 
Q 2900 3119 2900 3481 
Q 2900 3844 2670 4047 
Q 2441 4250 2034 4250 
Q 1625 4250 1398 4047 
Q 1172 3844 1172 3481 
z
" transform="scale(0.015625)"/>
       </defs>
       <use xlink:href="#DejaVuSans-30"/>
       <use xlink:href="#DejaVuSans-36" transform="translate(63.623047 0)"/>
       <use xlink:href="#DejaVuSans-2d" transform="translate(127.246094 0)"/>
       <use xlink:href="#DejaVuSans-32" transform="translate(163.330078 0)"/>
       <use xlink:href="#DejaVuSans-38" transform="translate(226.953125 0)"/>
       <use xlink:href="#DejaVuSans-20" transform="translate(290.576172 0)"/>
       <use xlink:href="#DejaVuSans-30" transform="translate(322.363281 0)"/>
       <use xlink:href="#DejaVuSans-30" transform="translate(385.986328 0)"/>
      </g>
     </g>
    </g>
    <g id="xtick_4">
     <g id="line2d_7">
      <path d="M 302.995139 318.76 
L 302.995139 25.92 
" clip-path="url(#p624c7b8a59)" style="fill: none; stroke: #b0b0b0; stroke-opacity: 0.2; stroke-width: 0.8; stroke-linecap: square"/>
     </g>
     <g id="line2d_8">
      <g>
       <use xlink:href="#m643b3b84b2" x="302.995139" y="318.76" style="stroke: #000000; stroke-width: 0.8"/>
      </g>
     </g>
     <g id="text_4">
      <!-- 06-28 12 -->
      <g transform="translate(280.51467 333.358438) scale(0.1 -0.1)">
       <use xlink:href="#DejaVuSans-30"/>
       <use xlink:href="#DejaVuSans-36" transform="translate(63.623047 0)"/>
       <use xlink:href="#DejaVuSans-2d" transform="translate(127.246094 0)"/>
       <use xlink:href="#DejaVuSans-32" transform="translate(163.330078 0)"/>
       <use xlink:href="#DejaVuSans-38" transform="translate(226.953125 0)"/>
       <use xlink:href="#DejaVuSans-20" transform="translate(290.576172 0)"/>
       <use xlink:href="#DejaVuSans-31" transform="translate(322.363281 0)"/>
       <use xlink:href="#DejaVuSans-32" transform="translate(385.986328 0)"/>
      </g>
     </g>
    </g>
    <g id="xtick_5">
     <g id="line2d_9">
      <path d="M 379.329046 318.76 
L 379.329046 25.92 
" clip-path="url(#p624c7b8a59)" style="fill: none; stroke: #b0b0b0; stroke-opacity: 0.2; stroke-width: 0.8; stroke-linecap: square"/>
     </g>
     <g id="line2d_10">
      <g>
       <use xlink:href="#m643b3b84b2" x="379.329046" y="318.76" style="stroke: #000000; stroke-width: 0.8"/>
      </g>
     </g>
     <g id="text_5">
      <!-- 06-29 00 -->
      <g transform="translate(356.848577 333.358438) scale(0.1 -0.1)">
       <defs>
        <path id="DejaVuSans-39" d="M 703 97 
L 703 672 
Q 941 559 1184 500 
Q 1428 441 1663 441 
Q 2288 441 2617 861 
Q 2947 1281 2994 2138 
Q 2813 1869 2534 1725 
Q 2256 1581 1919 1581 
Q 1219 1581 811 2004 
Q 403 2428 403 3163 
Q 403 3881 828 4315 
Q 1253 4750 1959 4750 
Q 2769 4750 3195 4129 
Q 3622 3509 3622 2328 
Q 3622 1225 3098 567 
Q 2575 -91 1691 -91 
Q 1453 -91 1209 -44 
Q 966 3 703 97 
z
M 1959 2075 
Q 2384 2075 2632 2365 
Q 2881 2656 2881 3163 
Q 2881 3666 2632 3958 
Q 2384 4250 1959 4250 
Q 1534 4250 1286 3958 
Q 1038 3666 1038 3163 
Q 1038 2656 1286 2365 
Q 1534 2075 1959 2075 
z
" transform="scale(0.015625)"/>
       </defs>
       <use xlink:href="#DejaVuSans-30"/>
       <use xlink:href="#DejaVuSans-36" transform="translate(63.623047 0)"/>
       <use xlink:href="#DejaVuSans-2d" transform="translate(127.246094 0)"/>
       <use xlink:href="#DejaVuSans-32" transform="translate(163.330078 0)"/>
       <use xlink:href="#DejaVuSans-39" transform="translate(226.953125 0)"/>
       <use xlink:href="#DejaVuSans-20" transform="translate(290.576172 0)"/>
       <use xlink:href="#DejaVuSans-30" transform="translate(322.363281 0)"/>
       <use xlink:href="#DejaVuSans-30" transform="translate(385.986328 0)"/>
      </g>
     </g>
    </g>
    <g id="xtick_6">
     <g id="line2d_11">
      <path d="M 455.662953 318.76 
L 455.662953 25.92 
" clip-path="url(#p624c7b8a59)" style="fill: none; stroke: #b0b0b0; stroke-opacity: 0.2; stroke-width: 0.8; stroke-linecap: square"/>
     </g>
     <g id="line2d_12">
      <g>
       <use xlink:href="#m643b3b84b2" x="455.662953" y="318.76" style="stroke: #000000; stroke-width: 0.8"/>
      </g>
     </g>
     <g id="text_6">
      <!-- 06-29 12 -->
      <g transform="translate(433.182484 333.358438) scale(0.1 -0.1)">
       <use xlink:href="#DejaVuSans-30"/>
       <use xlink:href="#DejaVuSans-36" transform="translate(63.623047 0)"/>
       <use xlink:href="#DejaVuSans-2d" transform="translate(127.246094 0)"/>
       <use xlink:href="#DejaVuSans-32" transform="translate(163.330078 0)"/>
       <use xlink:href="#DejaVuSans-39" transform="translate(226.953125 0)"/>
       <use xlink:href="#DejaVuSans-20" transform="translate(290.576172 0)"/>
       <use xlink:href="#DejaVuSans-31" transform="translate(322.363281 0)"/>
       <use xlink:href="#DejaVuSans-32" transform="translate(385.986328 0)"/>
      </g>
     </g>
    </g>
    <g id="xtick_7">
     <g id="line2d_13">
      <path d="M 531.99686 318.76 
L 531.99686 25.92 
" clip-path="url(#p624c7b8a59)" style="fill: none; stroke: #b0b0b0; stroke-opacity: 0.2; stroke-width: 0.8; stroke-linecap: square"/>
     </g>
     <g id="line2d_14">
      <g>
       <use xlink:href="#m643b3b84b2" x="531.99686" y="318.76" style="stroke: #000000; stroke-width: 0.8"/>
      </g>
     </g>
     <g id="text_7">
      <!-- 06-30 00 -->
      <g transform="translate(509.516391 333.358438) scale(0.1 -0.1)">
       <defs>
        <path id="DejaVuSans-33" d="M 2597 2516 
Q 3050 2419 3304 2112 
Q 3559 1806 3559 1356 
Q 3559 666 3084 287 
Q 2609 -91 1734 -91 
Q 1441 -91 1130 -33 
Q 819 25 488 141 
L 488 750 
Q 750 597 1062 519 
Q 1375 441 1716 441 
Q 2309 441 2620 675 
Q 2931 909 2931 1356 
Q 2931 1769 2642 2001 
Q 2353 2234 1838 2234 
L 1294 2234 
L 1294 2753 
L 1863 2753 
Q 2328 2753 2575 2939 
Q 2822 3125 2822 3475 
Q 2822 3834 2567 4026 
Q 2313 4219 1838 4219 
Q 1578 4219 1281 4162 
Q 984 4106 628 3988 
L 628 4550 
Q 988 4650 1302 4700 
Q 1616 4750 1894 4750 
Q 2613 4750 3031 4423 
Q 3450 4097 3450 3541 
Q 3450 3153 3228 2886 
Q 3006 2619 2597 2516 
z
" transform="scale(0.015625)"/>
       </defs>
       <use xlink:href="#DejaVuSans-30"/>
       <use xlink:href="#DejaVuSans-36" transform="translate(63.623047 0)"/>
       <use xlink:href="#DejaVuSans-2d" transform="translate(127.246094 0)"/>
       <use xlink:href="#DejaVuSans-33" transform="translate(163.330078 0)"/>
       <use xlink:href="#DejaVuSans-30" transform="translate(226.953125 0)"/>
       <use xlink:href="#DejaVuSans-20" transform="translate(290.576172 0)"/>
       <use xlink:href="#DejaVuSans-30" transform="translate(322.363281 0)"/>
       <use xlink:href="#DejaVuSans-30" transform="translate(385.986328 0)"/>
      </g>
     </g>
    </g>
    <g id="xtick_8">
     <g id="line2d_15">
      <path d="M 608.330767 318.76 
L 608.330767 25.92 
" clip-path="url(#p624c7b8a59)" style="fill: none; stroke: #b0b0b0; stroke-opacity: 0.2; stroke-width: 0.8; stroke-linecap: square"/>
     </g>
     <g id="line2d_16">
      <g>
       <use xlink:href="#m643b3b84b2" x="608.330767" y="318.76" style="stroke: #000000; stroke-width: 0.8"/>
      </g>
     </g>
     <g id="text_8">
      <!-- 06-30 12 -->
      <g transform="translate(585.850298 333.358438) scale(0.1 -0.1)">
       <use xlink:href="#DejaVuSans-30"/>
       <use xlink:href="#DejaVuSans-36" transform="translate(63.623047 0)"/>
       <use xlink:href="#DejaVuSans-2d" transform="translate(127.246094 0)"/>
       <use xlink:href="#DejaVuSans-33" transform="translate(163.330078 0)"/>
       <use xlink:href="#DejaVuSans-30" transform="translate(226.953125 0)"/>
       <use xlink:href="#DejaVuSans-20" transform="translate(290.576172 0)"/>
       <use xlink:href="#DejaVuSans-31" transform="translate(322.363281 0)"/>
       <use xlink:href="#DejaVuSans-32" transform="translate(385.986328 0)"/>
      </g>
     </g>
    </g>
    <g id="xtick_9">
     <g id="line2d_17">
      <path d="M 684.664674 318.76 
L 684.664674 25.92 
" clip-path="url(#p624c7b8a59)" style="fill: none; stroke: #b0b0b0; stroke-opacity: 0.2; stroke-width: 0.8; stroke-linecap: square"/>
     </g>
     <g id="line2d_18">
      <g>
       <use xlink:href="#m643b3b84b2" x="684.664674" y="318.76" style="stroke: #000000; stroke-width: 0.8"/>
      </g>
     </g>
     <g id="text_9">
      <!-- 07-01 00 -->
      <g transform="translate(662.184205 333.358438) scale(0.1 -0.1)">
       <use xlink:href="#DejaVuSans-30"/>
       <use xlink:href="#DejaVuSans-37" transform="translate(63.623047 0)"/>
       <use xlink:href="#DejaVuSans-2d" transform="translate(127.246094 0)"/>
       <use xlink:href="#DejaVuSans-30" transform="translate(163.330078 0)"/>
       <use xlink:href="#DejaVuSans-31" transform="translate(226.953125 0)"/>
       <use xlink:href="#DejaVuSans-20" transform="translate(290.576172 0)"/>
       <use xlink:href="#DejaVuSans-30" transform="translate(322.363281 0)"/>
       <use xlink:href="#DejaVuSans-30" transform="translate(385.986328 0)"/>
      </g>
     </g>
    </g>
    <g id="text_10">
     <!-- Fecha y hora -->
     <g transform="translate(339.233066 347.036563) scale(0.1 -0.1)">
      <defs>
       <path id="DejaVuSans-46" d="M 628 4666 
L 3309 4666 
L 3309 4134 
L 1259 4134 
L 1259 2759 
L 3109 2759 
L 3109 2228 
L 1259 2228 
L 1259 0 
L 628 0 
L 628 4666 
z
" transform="scale(0.015625)"/>
       <path id="DejaVuSans-65" d="M 3597 1894 
L 3597 1613 
L 953 1613 
Q 991 1019 1311 708 
Q 1631 397 2203 397 
Q 2534 397 2845 478 
Q 3156 559 3463 722 
L 3463 178 
Q 3153 47 2828 -22 
Q 2503 -91 2169 -91 
Q 1331 -91 842 396 
Q 353 884 353 1716 
Q 353 2575 817 3079 
Q 1281 3584 2069 3584 
Q 2775 3584 3186 3129 
Q 3597 2675 3597 1894 
z
M 3022 2063 
Q 3016 2534 2758 2815 
Q 2500 3097 2075 3097 
Q 1594 3097 1305 2825 
Q 1016 2553 972 2059 
L 3022 2063 
z
" transform="scale(0.015625)"/>
       <path id="DejaVuSans-63" d="M 3122 3366 
L 3122 2828 
Q 2878 2963 2633 3030 
Q 2388 3097 2138 3097 
Q 1578 3097 1268 2742 
Q 959 2388 959 1747 
Q 959 1106 1268 751 
Q 1578 397 2138 397 
Q 2388 397 2633 464 
Q 2878 531 3122 666 
L 3122 134 
Q 2881 22 2623 -34 
Q 2366 -91 2075 -91 
Q 1284 -91 818 406 
Q 353 903 353 1747 
Q 353 2603 823 3093 
Q 1294 3584 2113 3584 
Q 2378 3584 2631 3529 
Q 2884 3475 3122 3366 
z
" transform="scale(0.015625)"/>
       <path id="DejaVuSans-68" d="M 3513 2113 
L 3513 0 
L 2938 0 
L 2938 2094 
Q 2938 2591 2744 2837 
Q 2550 3084 2163 3084 
Q 1697 3084 1428 2787 
Q 1159 2491 1159 1978 
L 1159 0 
L 581 0 
L 581 4863 
L 1159 4863 
L 1159 2956 
Q 1366 3272 1645 3428 
Q 1925 3584 2291 3584 
Q 2894 3584 3203 3211 
Q 3513 2838 3513 2113 
z
" transform="scale(0.015625)"/>
       <path id="DejaVuSans-61" d="M 2194 1759 
Q 1497 1759 1228 1600 
Q 959 1441 959 1056 
Q 959 750 1161 570 
Q 1363 391 1709 391 
Q 2188 391 2477 730 
Q 2766 1069 2766 1631 
L 2766 1759 
L 2194 1759 
z
M 3341 1997 
L 3341 0 
L 2766 0 
L 2766 531 
Q 2569 213 2275 61 
Q 1981 -91 1556 -91 
Q 1019 -91 701 211 
Q 384 513 384 1019 
Q 384 1609 779 1909 
Q 1175 2209 1959 2209 
L 2766 2209 
L 2766 2266 
Q 2766 2663 2505 2880 
Q 2244 3097 1772 3097 
Q 1472 3097 1187 3025 
Q 903 2953 641 2809 
L 641 3341 
Q 956 3463 1253 3523 
Q 1550 3584 1831 3584 
Q 2591 3584 2966 3190 
Q 3341 2797 3341 1997 
z
" transform="scale(0.015625)"/>
       <path id="DejaVuSans-79" d="M 2059 -325 
Q 1816 -950 1584 -1140 
Q 1353 -1331 966 -1331 
L 506 -1331 
L 506 -850 
L 844 -850 
Q 1081 -850 1212 -737 
Q 1344 -625 1503 -206 
L 1606 56 
L 191 3500 
L 800 3500 
L 1894 763 
L 2988 3500 
L 3597 3500 
L 2059 -325 
z
" transform="scale(0.015625)"/>
       <path id="DejaVuSans-6f" d="M 1959 3097 
Q 1497 3097 1228 2736 
Q 959 2375 959 1747 
Q 959 1119 1226 758 
Q 1494 397 1959 397 
Q 2419 397 2687 759 
Q 2956 1122 2956 1747 
Q 2956 2369 2687 2733 
Q 2419 3097 1959 3097 
z
M 1959 3584 
Q 2709 3584 3137 3096 
Q 3566 2609 3566 1747 
Q 3566 888 3137 398 
Q 2709 -91 1959 -91 
Q 1206 -91 779 398 
Q 353 888 353 1747 
Q 353 2609 779 3096 
Q 1206 3584 1959 3584 
z
" transform="scale(0.015625)"/>
       <path id="DejaVuSans-72" d="M 2631 2963 
Q 2534 3019 2420 3045 
Q 2306 3072 2169 3072 
Q 1681 3072 1420 2755 
Q 1159 2438 1159 1844 
L 1159 0 
L 581 0 
L 581 3500 
L 1159 3500 
L 1159 2956 
Q 1341 3275 1631 3429 
Q 1922 3584 2338 3584 
Q 2397 3584 2469 3576 
Q 2541 3569 2628 3553 
L 2631 2963 
z
" transform="scale(0.015625)"/>
      </defs>
      <use xlink:href="#DejaVuSans-46"/>
      <use xlink:href="#DejaVuSans-65" transform="translate(52.019531 0)"/>
      <use xlink:href="#DejaVuSans-63" transform="translate(113.542969 0)"/>
      <use xlink:href="#DejaVuSans-68" transform="translate(168.523438 0)"/>
      <use xlink:href="#DejaVuSans-61" transform="translate(231.902344 0)"/>
      <use xlink:href="#DejaVuSans-20" transform="translate(293.181641 0)"/>
      <use xlink:href="#DejaVuSans-79" transform="translate(324.96875 0)"/>
      <use xlink:href="#DejaVuSans-20" transform="translate(384.148438 0)"/>
      <use xlink:href="#DejaVuSans-68" transform="translate(415.935547 0)"/>
      <use xlink:href="#DejaVuSans-6f" transform="translate(479.314453 0)"/>
      <use xlink:href="#DejaVuSans-72" transform="translate(540.496094 0)"/>
      <use xlink:href="#DejaVuSans-61" transform="translate(581.609375 0)"/>
     </g>
    </g>
   </g>
   <g id="matplotlib.axis_2">
    <g id="ytick_1">
     <g id="line2d_19">
      <path d="M 44.255 292.07986 
L 698.500194 292.07986 
" clip-path="url(#p624c7b8a59)" style="fill: none; stroke: #b0b0b0; stroke-opacity: 0.2; stroke-width: 0.8; stroke-linecap: square"/>
     </g>
     <g id="line2d_20">
      <defs>
       <path id="m44f1960f6f" d="M 0 0 
L -3.5 0 
" style="stroke: #000000; stroke-width: 0.8"/>
      </defs>
      <g>
       <use xlink:href="#m44f1960f6f" x="44.255" y="292.07986" style="stroke: #000000; stroke-width: 0.8"/>
      </g>
     </g>
     <g id="text_11">
      <!-- 15 -->
      <g transform="translate(24.53 295.879078) scale(0.1 -0.1)">
       <defs>
        <path id="DejaVuSans-35" d="M 691 4666 
L 3169 4666 
L 3169 4134 
L 1269 4134 
L 1269 2991 
Q 1406 3038 1543 3061 
Q 1681 3084 1819 3084 
Q 2600 3084 3056 2656 
Q 3513 2228 3513 1497 
Q 3513 744 3044 326 
Q 2575 -91 1722 -91 
Q 1428 -91 1123 -41 
Q 819 9 494 109 
L 494 744 
Q 775 591 1075 516 
Q 1375 441 1709 441 
Q 2250 441 2565 725 
Q 2881 1009 2881 1497 
Q 2881 1984 2565 2268 
Q 2250 2553 1709 2553 
Q 1456 2553 1204 2497 
Q 953 2441 691 2322 
L 691 4666 
z
" transform="scale(0.015625)"/>
       </defs>
       <use xlink:href="#DejaVuSans-31"/>
       <use xlink:href="#DejaVuSans-35" transform="translate(63.623047 0)"/>
      </g>
     </g>
    </g>
    <g id="ytick_2">
     <g id="line2d_21">
      <path d="M 44.255 247.216668 
L 698.500194 247.216668 
" clip-path="url(#p624c7b8a59)" style="fill: none; stroke: #b0b0b0; stroke-opacity: 0.2; stroke-width: 0.8; stroke-linecap: square"/>
     </g>
     <g id="line2d_22">
      <g>
       <use xlink:href="#m44f1960f6f" x="44.255" y="247.216668" style="stroke: #000000; stroke-width: 0.8"/>
      </g>
     </g>
     <g id="text_12">
      <!-- 20 -->
      <g transform="translate(24.53 251.015886) scale(0.1 -0.1)">
       <use xlink:href="#DejaVuSans-32"/>
       <use xlink:href="#DejaVuSans-30" transform="translate(63.623047 0)"/>
      </g>
     </g>
    </g>
    <g id="ytick_3">
     <g id="line2d_23">
      <path d="M 44.255 202.353476 
L 698.500194 202.353476 
" clip-path="url(#p624c7b8a59)" style="fill: none; stroke: #b0b0b0; stroke-opacity: 0.2; stroke-width: 0.8; stroke-linecap: square"/>
     </g>
     <g id="line2d_24">
      <g>
       <use xlink:href="#m44f1960f6f" x="44.255" y="202.353476" style="stroke: #000000; stroke-width: 0.8"/>
      </g>
     </g>
     <g id="text_13">
      <!-- 25 -->
      <g transform="translate(24.53 206.152694) scale(0.1 -0.1)">
       <use xlink:href="#DejaVuSans-32"/>
       <use xlink:href="#DejaVuSans-35" transform="translate(63.623047 0)"/>
      </g>
     </g>
    </g>
    <g id="ytick_4">
     <g id="line2d_25">
      <path d="M 44.255 157.490283 
L 698.500194 157.490283 
" clip-path="url(#p624c7b8a59)" style="fill: none; stroke: #b0b0b0; stroke-opacity: 0.2; stroke-width: 0.8; stroke-linecap: square"/>
     </g>
     <g id="line2d_26">
      <g>
       <use xlink:href="#m44f1960f6f" x="44.255" y="157.490283" style="stroke: #000000; stroke-width: 0.8"/>
      </g>
     </g>
     <g id="text_14">
      <!-- 30 -->
      <g transform="translate(24.53 161.289502) scale(0.1 -0.1)">
       <use xlink:href="#DejaVuSans-33"/>
       <use xlink:href="#DejaVuSans-30" transform="translate(63.623047 0)"/>
      </g>
     </g>
    </g>
    <g id="ytick_5">
     <g id="line2d_27">
      <path d="M 44.255 112.627091 
L 698.500194 112.627091 
" clip-path="url(#p624c7b8a59)" style="fill: none; stroke: #b0b0b0; stroke-opacity: 0.2; stroke-width: 0.8; stroke-linecap: square"/>
     </g>
     <g id="line2d_28">
      <g>
       <use xlink:href="#m44f1960f6f" x="44.255" y="112.627091" style="stroke: #000000; stroke-width: 0.8"/>
      </g>
     </g>
     <g id="text_15">
      <!-- 35 -->
      <g transform="translate(24.53 116.42631) scale(0.1 -0.1)">
       <use xlink:href="#DejaVuSans-33"/>
       <use xlink:href="#DejaVuSans-35" transform="translate(63.623047 0)"/>
      </g>
     </g>
    </g>
    <g id="ytick_6">
     <g id="line2d_29">
      <path d="M 44.255 67.763899 
L 698.500194 67.763899 
" clip-path="url(#p624c7b8a59)" style="fill: none; stroke: #b0b0b0; stroke-opacity: 0.2; stroke-width: 0.8; stroke-linecap: square"/>
     </g>
     <g id="line2d_30">
      <g>
       <use xlink:href="#m44f1960f6f" x="44.255" y="67.763899" style="stroke: #000000; stroke-width: 0.8"/>
      </g>
     </g>
     <g id="text_16">
      <!-- 40 -->
      <g transform="translate(24.53 71.563118) scale(0.1 -0.1)">
       <defs>
        <path id="DejaVuSans-34" d="M 2419 4116 
L 825 1625 
L 2419 1625 
L 2419 4116 
z
M 2253 4666 
L 3047 4666 
L 3047 1625 
L 3713 1625 
L 3713 1100 
L 3047 1100 
L 3047 0 
L 2419 0 
L 2419 1100 
L 313 1100 
L 313 1709 
L 2253 4666 
z
" transform="scale(0.015625)"/>
       </defs>
       <use xlink:href="#DejaVuSans-34"/>
       <use xlink:href="#DejaVuSans-30" transform="translate(63.623047 0)"/>
      </g>
     </g>
    </g>
    <g id="text_17">
     <!-- Temperatura (°C) -->
     <g transform="translate(18.450313 215.591563) rotate(-90) scale(0.1 -0.1)">
      <defs>
       <path id="DejaVuSans-54" d="M -19 4666 
L 3928 4666 
L 3928 4134 
L 2272 4134 
L 2272 0 
L 1638 0 
L 1638 4134 
L -19 4134 
L -19 4666 
z
" transform="scale(0.015625)"/>
       <path id="DejaVuSans-6d" d="M 3328 2828 
Q 3544 3216 3844 3400 
Q 4144 3584 4550 3584 
Q 5097 3584 5394 3201 
Q 5691 2819 5691 2113 
L 5691 0 
L 5113 0 
L 5113 2094 
Q 5113 2597 4934 2840 
Q 4756 3084 4391 3084 
Q 3944 3084 3684 2787 
Q 3425 2491 3425 1978 
L 3425 0 
L 2847 0 
L 2847 2094 
Q 2847 2600 2669 2842 
Q 2491 3084 2119 3084 
Q 1678 3084 1418 2786 
Q 1159 2488 1159 1978 
L 1159 0 
L 581 0 
L 581 3500 
L 1159 3500 
L 1159 2956 
Q 1356 3278 1631 3431 
Q 1906 3584 2284 3584 
Q 2666 3584 2933 3390 
Q 3200 3197 3328 2828 
z
" transform="scale(0.015625)"/>
       <path id="DejaVuSans-70" d="M 1159 525 
L 1159 -1331 
L 581 -1331 
L 581 3500 
L 1159 3500 
L 1159 2969 
Q 1341 3281 1617 3432 
Q 1894 3584 2278 3584 
Q 2916 3584 3314 3078 
Q 3713 2572 3713 1747 
Q 3713 922 3314 415 
Q 2916 -91 2278 -91 
Q 1894 -91 1617 61 
Q 1341 213 1159 525 
z
M 3116 1747 
Q 3116 2381 2855 2742 
Q 2594 3103 2138 3103 
Q 1681 3103 1420 2742 
Q 1159 2381 1159 1747 
Q 1159 1113 1420 752 
Q 1681 391 2138 391 
Q 2594 391 2855 752 
Q 3116 1113 3116 1747 
z
" transform="scale(0.015625)"/>
       <path id="DejaVuSans-74" d="M 1172 4494 
L 1172 3500 
L 2356 3500 
L 2356 3053 
L 1172 3053 
L 1172 1153 
Q 1172 725 1289 603 
Q 1406 481 1766 481 
L 2356 481 
L 2356 0 
L 1766 0 
Q 1100 0 847 248 
Q 594 497 594 1153 
L 594 3053 
L 172 3053 
L 172 3500 
L 594 3500 
L 594 4494 
L 1172 4494 
z
" transform="scale(0.015625)"/>
       <path id="DejaVuSans-75" d="M 544 1381 
L 544 3500 
L 1119 3500 
L 1119 1403 
Q 1119 906 1312 657 
Q 1506 409 1894 409 
Q 2359 409 2629 706 
Q 2900 1003 2900 1516 
L 2900 3500 
L 3475 3500 
L 3475 0 
L 2900 0 
L 2900 538 
Q 2691 219 2414 64 
Q 2138 -91 1772 -91 
Q 1169 -91 856 284 
Q 544 659 544 1381 
z
M 1991 3584 
L 1991 3584 
z
" transform="scale(0.015625)"/>
       <path id="DejaVuSans-28" d="M 1984 4856 
Q 1566 4138 1362 3434 
Q 1159 2731 1159 2009 
Q 1159 1288 1364 580 
Q 1569 -128 1984 -844 
L 1484 -844 
Q 1016 -109 783 600 
Q 550 1309 550 2009 
Q 550 2706 781 3412 
Q 1013 4119 1484 4856 
L 1984 4856 
z
" transform="scale(0.015625)"/>
       <path id="DejaVuSans-b0" d="M 1600 4347 
Q 1350 4347 1178 4173 
Q 1006 4000 1006 3750 
Q 1006 3503 1178 3333 
Q 1350 3163 1600 3163 
Q 1850 3163 2022 3333 
Q 2194 3503 2194 3750 
Q 2194 3997 2020 4172 
Q 1847 4347 1600 4347 
z
M 1600 4750 
Q 1800 4750 1984 4673 
Q 2169 4597 2303 4453 
Q 2447 4313 2519 4134 
Q 2591 3956 2591 3750 
Q 2591 3338 2302 3052 
Q 2013 2766 1594 2766 
Q 1172 2766 890 3047 
Q 609 3328 609 3750 
Q 609 4169 896 4459 
Q 1184 4750 1600 4750 
z
" transform="scale(0.015625)"/>
       <path id="DejaVuSans-43" d="M 4122 4306 
L 4122 3641 
Q 3803 3938 3442 4084 
Q 3081 4231 2675 4231 
Q 1875 4231 1450 3742 
Q 1025 3253 1025 2328 
Q 1025 1406 1450 917 
Q 1875 428 2675 428 
Q 3081 428 3442 575 
Q 3803 722 4122 1019 
L 4122 359 
Q 3791 134 3420 21 
Q 3050 -91 2638 -91 
Q 1578 -91 968 557 
Q 359 1206 359 2328 
Q 359 3453 968 4101 
Q 1578 4750 2638 4750 
Q 3056 4750 3426 4639 
Q 3797 4528 4122 4306 
z
" transform="scale(0.015625)"/>
       <path id="DejaVuSans-29" d="M 513 4856 
L 1013 4856 
Q 1481 4119 1714 3412 
Q 1947 2706 1947 2009 
Q 1947 1309 1714 600 
Q 1481 -109 1013 -844 
L 513 -844 
Q 928 -128 1133 580 
Q 1338 1288 1338 2009 
Q 1338 2731 1133 3434 
Q 928 4138 513 4856 
z
" transform="scale(0.015625)"/>
      </defs>
      <use xlink:href="#DejaVuSans-54"/>
      <use xlink:href="#DejaVuSans-65" transform="translate(44.083984 0)"/>
      <use xlink:href="#DejaVuSans-6d" transform="translate(105.607422 0)"/>
      <use xlink:href="#DejaVuSans-70" transform="translate(203.019531 0)"/>
      <use xlink:href="#DejaVuSans-65" transform="translate(266.496094 0)"/>
      <use xlink:href="#DejaVuSans-72" transform="translate(328.019531 0)"/>
      <use xlink:href="#DejaVuSans-61" transform="translate(369.132812 0)"/>
      <use xlink:href="#DejaVuSans-74" transform="translate(430.412109 0)"/>
      <use xlink:href="#DejaVuSans-75" transform="translate(469.621094 0)"/>
      <use xlink:href="#DejaVuSans-72" transform="translate(533 0)"/>
      <use xlink:href="#DejaVuSans-61" transform="translate(574.113281 0)"/>
      <use xlink:href="#DejaVuSans-20" transform="translate(635.392578 0)"/>
      <use xlink:href="#DejaVuSans-28" transform="translate(667.179688 0)"/>
      <use xlink:href="#DejaVuSans-b0" transform="translate(706.193359 0)"/>
      <use xlink:href="#DejaVuSans-43" transform="translate(756.193359 0)"/>
      <use xlink:href="#DejaVuSans-29" transform="translate(826.017578 0)"/>
     </g>
    </g>
   </g>
   <g id="line2d_31">
    <path d="M 73.993418 250.805723 
L 77.173997 254.663957 
L 80.354577 262.918785 
L 83.535156 273.327045 
L 86.715736 278.261997 
L 89.896315 281.761325 
L 93.076895 287.324361 
L 96.257474 291.541501 
L 99.438054 293.694935 
L 102.618633 297.373716 
L 105.799213 299.078518 
L 112.160371 301.770309 
L 115.340951 302.577847 
L 118.52153 301.949762 
L 121.70211 295.220283 
L 124.882689 272.698961 
L 128.063269 225.951515 
L 131.243848 192.30412 
L 134.424428 161.707423 
L 137.605007 160.899886 
L 140.785587 146.095033 
L 143.966166 132.187443 
L 147.146745 120.253834 
L 150.327325 114.511345 
L 153.507904 106.435971 
L 156.688484 113.344902 
L 159.869063 100.065398 
L 163.049643 100.424303 
L 166.230222 90.82358 
L 169.410802 72.339945 
L 172.591381 76.018727 
L 175.771961 52.510414 
L 178.95254 58.701534 
L 182.133119 60.226883 
L 185.313699 71.622134 
L 188.494278 69.109795 
L 191.674858 63.726212 
L 194.855437 86.785893 
L 198.036017 112.985997 
L 201.216596 124.740153 
L 204.397176 127.79085 
L 207.577755 143.582694 
L 210.758335 169.962251 
L 213.938914 193.021932 
L 217.119494 213.659 
L 220.300073 225.413156 
L 223.480652 238.872114 
L 226.661232 243.448159 
L 229.841811 248.831743 
L 233.022391 250.177638 
L 236.20297 257.176296 
L 239.38355 260.585899 
L 242.564129 260.765352 
L 245.744709 268.840726 
L 248.925288 269.109905 
L 252.105868 273.327045 
L 255.286447 277.903091 
L 258.467026 276.557195 
L 261.647606 281.761325 
L 264.828185 284.094211 
L 268.008765 264.982492 
L 271.189344 278.531176 
L 274.369924 277.723638 
L 277.550503 256.189306 
L 280.731083 212.492557 
L 283.911662 184.587651 
L 287.092242 148.607371 
L 290.272821 126.983313 
L 293.453401 125.457964 
L 296.63398 121.868909 
L 299.814559 102.039378 
L 302.995139 105.269528 
L 306.175718 94.681815 
L 309.356298 74.313925 
L 312.536877 69.289248 
L 315.717457 74.493378 
L 318.898036 68.48171 
L 322.078616 61.03442 
L 325.259195 66.597456 
L 328.439775 45.780935 
L 331.620354 54.8433 
L 334.800933 56.996733 
L 337.981513 55.83029 
L 341.162092 48.921359 
L 344.342672 57.535091 
L 347.523251 55.471385 
L 350.703831 86.60644 
L 353.88441 100.424303 
L 357.06499 116.485326 
L 360.245569 140.083365 
L 366.606728 173.641033 
L 369.787307 184.767104 
L 372.967887 191.855489 
L 376.148466 203.96855 
L 379.329046 213.030915 
L 382.509625 222.452186 
L 385.690205 234.026889 
L 388.870784 239.589925 
L 392.051364 238.692661 
L 395.231943 248.472837 
L 398.412523 239.051567 
L 401.593102 235.552238 
L 404.773682 247.934479 
L 407.954261 249.63928 
L 411.13484 256.189306 
L 414.31542 255.022863 
L 417.495999 257.894107 
L 420.676579 262.111247 
L 423.857158 264.623586 
L 427.037738 259.419456 
L 430.218317 238.423482 
L 433.398897 191.496583 
L 436.579476 159.733443 
L 439.760056 137.032668 
L 442.940635 130.123736 
L 446.121214 122.766173 
L 449.301794 107.781867 
L 452.482373 107.243508 
L 455.662953 90.644127 
L 458.843532 79.518056 
L 462.024112 73.147482 
L 465.204691 56.548101 
L 468.385271 55.202205 
L 471.56585 61.03442 
L 474.74643 50.985065 
L 477.927009 51.343971 
L 481.107589 69.468701 
L 484.288168 65.072108 
L 487.468747 50.985065 
L 490.649327 50.805613 
L 493.829906 49.63917 
L 497.010486 49.100811 
L 500.191065 68.122805 
L 503.371645 86.426987 
L 506.552224 91.272212 
L 509.732804 102.577736 
L 512.913383 131.828538 
L 516.093963 165.296479 
L 519.274542 186.113 
L 522.455121 180.191059 
L 525.635701 184.408199 
L 528.81628 201.276759 
L 531.99686 196.880166 
L 535.177439 147.261476 
L 538.358019 151.478616 
L 541.538598 154.529313 
L 544.719178 171.128694 
L 547.899757 160.54098 
L 551.080337 167.449912 
L 554.260916 172.47459 
L 560.622075 173.192401 
L 563.802654 177.67872 
L 566.983234 183.241756 
L 570.163813 186.292453 
L 573.344393 196.162355 
L 576.524972 207.647332 
L 579.705552 218.414498 
L 582.886131 205.404173 
L 586.066711 174.986928 
L 589.24729 148.427919 
L 592.42787 128.957293 
L 595.608449 116.485326 
L 598.789028 101.231841 
L 601.969608 110.473658 
L 605.150187 99.527039 
L 608.330767 89.298231 
L 611.511346 91.631117 
L 614.691926 81.043404 
L 617.872505 61.213873 
L 621.053085 61.572779 
L 624.233664 41.025437 
L 627.414244 50.62616 
L 630.594823 54.304942 
L 633.775402 87.413977 
L 636.955982 86.426987 
L 640.136561 110.653111 
L 643.317141 159.195085 
L 646.49772 178.396531 
L 649.6783 208.634322 
L 652.858879 194.188375 
L 656.039459 194.188375 
L 659.220038 188.625339 
L 662.400618 174.717749 
L 665.581197 158.208094 
L 668.761777 149.773814 
L 668.761777 149.773814 
" clip-path="url(#p624c7b8a59)" style="fill: none; stroke: #1f77b4; stroke-width: 1.5; stroke-linecap: square"/>
   </g>
   <g id="line2d_32">
    <path d="M 73.993418 250.177638 
L 77.173997 252.86943 
L 80.354577 263.098238 
L 83.535156 274.672941 
L 86.715736 281.581873 
L 89.896315 283.107221 
L 93.076895 289.657247 
L 96.257474 293.336029 
L 99.438054 295.220283 
L 102.618633 298.360707 
L 105.799213 300.783319 
L 108.979792 301.590856 
L 112.160371 302.757299 
L 115.340951 303.295658 
L 118.52153 301.949762 
L 121.70211 293.515482 
L 124.882689 260.585899 
L 128.063269 223.08027 
L 131.243848 204.23773 
L 134.424428 174.986928 
L 137.605007 157.400557 
L 140.785587 141.69844 
L 143.966166 133.174433 
L 147.146745 124.112069 
L 150.327325 119.536023 
L 153.507904 111.999007 
L 156.688484 102.757189 
L 159.869063 96.835248 
L 163.049643 99.078407 
L 166.230222 86.965345 
L 169.410802 83.37629 
L 172.591381 72.788577 
L 175.771961 65.610466 
L 178.95254 64.444023 
L 182.133119 69.648153 
L 185.313699 67.584446 
L 188.494278 58.522082 
L 191.674858 53.497404 
L 194.855437 70.814596 
L 198.036017 71.622134 
L 201.216596 55.650837 
L 204.397176 85.61945 
L 207.577755 119.35657 
L 210.758335 168.616355 
L 213.938914 196.162355 
L 217.119494 217.87614 
L 220.300073 227.117958 
L 223.480652 239.410472 
L 226.661232 244.255697 
L 229.841811 251.702987 
L 233.022391 252.151619 
L 236.20297 254.84341 
L 239.38355 260.944804 
L 242.564129 259.598909 
L 245.744709 269.827716 
L 248.925288 270.455801 
L 252.105868 273.327045 
L 255.286447 280.056524 
L 258.467026 278.710628 
L 261.647606 284.094211 
L 264.828185 286.786003 
L 268.008765 267.943462 
L 271.189344 281.761325 
L 274.369924 278.261997 
L 277.550503 240.21801 
L 283.911662 185.305463 
L 287.092242 165.924564 
L 290.272821 140.083365 
L 293.453401 126.983313 
L 296.63398 123.214805 
L 299.814559 106.974329 
L 302.995139 104.103085 
L 306.175718 89.477684 
L 309.356298 79.518056 
L 312.536877 72.96803 
L 315.717457 70.276238 
L 318.898036 65.789919 
L 322.078616 62.559769 
L 325.259195 61.03442 
L 328.439775 57.535091 
L 331.620354 48.113821 
L 334.800933 53.138499 
L 337.981513 53.497404 
L 341.162092 48.652179 
L 344.342672 53.317951 
L 347.523251 40.845984 
L 350.703831 45.960388 
L 353.88441 48.472727 
L 357.06499 115.498336 
L 360.245569 131.469632 
L 363.426149 158.387547 
L 366.606728 176.871182 
L 369.787307 187.817801 
L 372.967887 193.829469 
L 376.148466 206.750068 
L 379.329046 214.017905 
L 385.690205 236.718681 
L 388.870784 240.756368 
L 392.051364 240.038557 
L 395.231943 249.818733 
L 398.412523 236.00087 
L 401.593102 236.898133 
L 404.773682 246.139951 
L 407.954261 248.65229 
L 411.13484 257.176296 
L 414.31542 256.907117 
L 420.676579 263.27769 
L 423.857158 267.135925 
L 427.037738 262.2907 
L 430.218317 229.450844 
L 433.398897 187.638349 
L 436.579476 162.066329 
L 439.760056 143.223788 
L 442.940635 130.841547 
L 446.121214 118.907938 
L 449.301794 107.961319 
L 452.482373 105.628433 
L 455.662953 96.655795 
L 458.843532 78.889971 
L 462.024112 70.455691 
L 465.204691 56.996733 
L 468.385271 57.535091 
L 471.56585 57.714544 
L 474.74643 55.650837 
L 477.927009 50.446707 
L 481.107589 74.672831 
L 484.288168 68.302258 
L 487.468747 50.62616 
L 490.649327 41.025437 
L 493.829906 43.268596 
L 497.010486 39.410362 
L 500.191065 56.996733 
L 503.371645 60.854968 
L 506.552224 69.648153 
L 509.732804 94.322909 
L 512.913383 132.994981 
L 516.093963 167.98827 
L 519.274542 187.279443 
L 522.455121 183.780114 
L 525.635701 184.587651 
L 528.81628 203.250739 
L 531.99686 199.75141 
L 535.177439 148.607371 
L 538.358019 153.36287 
L 541.538598 155.875209 
L 544.719178 167.270459 
L 547.899757 163.232772 
L 551.080337 169.782798 
L 554.260916 174.986928 
L 557.441496 174.717749 
L 560.622075 174.986928 
L 563.802654 179.383521 
L 566.983234 185.12601 
L 570.163813 185.754094 
L 573.344393 195.53427 
L 579.705552 222.900817 
L 586.066711 177.67872 
L 589.24729 159.195085 
L 592.42787 147.979287 
L 595.608449 126.983313 
L 598.789028 112.178459 
L 601.969608 108.320225 
L 605.150187 107.243508 
L 608.330767 91.81057 
L 611.511346 89.657137 
L 614.691926 79.876961 
L 617.872505 61.572779 
L 621.053085 64.085118 
L 624.233664 56.189196 
L 627.414244 55.83029 
L 630.594823 53.497404 
L 633.775402 90.464674 
L 636.955982 89.477684 
L 640.136561 114.15244 
L 643.317141 159.55399 
L 646.49772 173.192401 
L 649.6783 202.443202 
L 652.858879 190.509593 
L 656.039459 191.496583 
L 659.220038 187.458896 
L 662.400618 175.884192 
L 665.581197 156.32384 
L 668.761777 150.13272 
L 668.761777 150.13272 
" clip-path="url(#p624c7b8a59)" style="fill: none; stroke: #ff7f0e; stroke-width: 1.5; stroke-linecap: square"/>
   </g>
   <g id="line2d_33">
    <path d="M 73.993418 249.280374 
L 77.173997 253.676967 
L 80.354577 262.918785 
L 83.535156 276.736648 
L 86.715736 282.120231 
L 89.896315 285.799013 
L 93.076895 290.82369 
L 96.257474 292.887397 
L 99.438054 296.386726 
L 102.618633 299.706602 
L 105.799213 301.770309 
L 108.979792 302.577847 
L 112.160371 304.821006 
L 115.340951 305.449091 
L 118.52153 301.949762 
L 121.70211 295.220283 
L 124.882689 263.905775 
L 128.063269 207.108974 
L 131.243848 186.113 
L 134.424428 151.478616 
L 137.605007 163.232772 
L 140.785587 138.737469 
L 143.966166 128.957293 
L 147.146745 119.715476 
L 153.507904 104.103085 
L 156.688484 103.744179 
L 159.869063 91.81057 
L 163.049643 99.347586 
L 166.230222 88.131788 
L 169.410802 77.723528 
L 172.591381 73.147482 
L 175.771961 66.238551 
L 178.95254 67.943352 
L 182.133119 64.26457 
L 185.313699 70.635144 
L 188.494278 68.750889 
L 191.674858 64.26457 
L 194.855437 72.788577 
L 198.036017 74.852284 
L 201.216596 85.439997 
L 204.397176 122.407267 
L 207.577755 137.212121 
L 210.758335 170.141704 
L 213.938914 196.700713 
L 217.119494 217.517234 
L 220.300073 228.104948 
L 223.480652 238.244029 
L 226.661232 243.089254 
L 229.841811 250.62627 
L 233.022391 253.048883 
L 236.20297 257.176296 
L 239.38355 260.765352 
L 242.564129 264.982492 
L 245.744709 268.302368 
L 248.925288 270.186622 
L 252.105868 274.044856 
L 255.286447 280.41543 
L 258.467026 280.056524 
L 261.647606 284.094211 
L 264.828185 285.440107 
L 268.008765 271.532518 
L 271.189344 278.890081 
L 274.369924 278.710628 
L 277.550503 243.448159 
L 280.731083 195.53427 
L 283.911662 164.130036 
L 290.272821 128.77784 
L 293.453401 123.214805 
L 296.63398 118.010674 
L 299.814559 98.719502 
L 302.995139 102.039378 
L 306.175718 92.169476 
L 309.356298 76.198179 
L 312.536877 69.827606 
L 315.717457 73.326935 
L 318.898036 63.905665 
L 322.078616 62.739222 
L 325.259195 66.059098 
L 328.439775 52.510414 
L 331.620354 53.138499 
L 334.800933 52.330961 
L 337.981513 57.893997 
L 341.162092 52.959046 
L 344.342672 58.701534 
L 347.523251 52.779593 
L 350.703831 55.83029 
L 353.88441 72.519398 
L 357.06499 112.627091 
L 360.245569 138.558016 
L 363.426149 159.374537 
L 366.606728 178.037625 
L 369.787307 187.09999 
L 372.967887 192.483573 
L 376.148466 206.480889 
L 379.329046 212.67201 
L 382.509625 225.413156 
L 385.690205 235.73169 
L 388.870784 240.397462 
L 392.051364 239.231019 
L 395.231943 248.65229 
L 398.412523 237.346765 
L 401.593102 237.705671 
L 404.773682 245.601593 
L 407.954261 249.459827 
L 411.13484 256.907117 
L 414.31542 256.009853 
L 417.495999 259.419456 
L 420.676579 263.457143 
L 423.857158 266.328387 
L 427.037738 261.931795 
L 430.218317 233.039899 
L 433.398897 166.104016 
L 439.760056 123.57371 
L 442.940635 128.77784 
L 446.121214 119.35657 
L 449.301794 106.077065 
L 452.482373 97.194153 
L 455.662953 86.247534 
L 458.843532 70.096785 
L 462.024112 66.418003 
L 465.204691 59.867977 
L 468.385271 54.8433 
L 471.56585 54.484394 
L 474.74643 49.63917 
L 477.927009 54.125489 
L 481.107589 72.96803 
L 484.288168 66.418003 
L 487.468747 47.754916 
L 490.649327 47.934368 
L 493.829906 43.717228 
L 497.010486 39.230909 
L 500.191065 54.8433 
L 503.371645 58.880987 
L 506.552224 77.723528 
L 509.732804 101.411293 
L 512.913383 133.353886 
L 516.093963 168.25745 
L 519.274542 186.292453 
L 522.455121 180.729417 
L 525.635701 186.113 
L 528.81628 202.443202 
L 531.99686 199.392505 
L 535.177439 148.427919 
L 538.358019 151.478616 
L 541.538598 155.516303 
L 544.719178 170.321156 
L 547.899757 162.425235 
L 551.080337 168.975261 
L 554.260916 174.538296 
L 557.441496 175.166381 
L 560.622075 174.358844 
L 563.802654 179.742427 
L 566.983234 185.754094 
L 570.163813 185.933547 
L 573.344393 196.162355 
L 576.524972 208.993228 
L 579.705552 220.209026 
L 582.886131 200.558948 
L 586.066711 166.104016 
L 589.24729 145.287495 
L 592.42787 131.469632 
L 595.608449 125.457964 
L 601.969608 100.424303 
L 605.150187 96.655795 
L 608.330767 88.490694 
L 611.511346 82.927658 
L 614.691926 73.147482 
L 617.872505 62.200863 
L 621.053085 61.931684 
L 624.233664 51.164518 
L 627.414244 56.009743 
L 630.594823 54.125489 
L 633.775402 88.490694 
L 636.955982 88.759873 
L 640.136561 111.819554 
L 643.317141 158.208094 
L 646.49772 177.67872 
L 649.6783 204.955541 
L 652.858879 189.971234 
L 656.039459 190.33014 
L 659.220038 185.574642 
L 662.400618 174.179391 
L 665.581197 155.33685 
L 668.761777 147.620381 
L 668.761777 147.620381 
" clip-path="url(#p624c7b8a59)" style="fill: none; stroke: #2ca02c; stroke-width: 1.5; stroke-linecap: square"/>
   </g>
   <g id="line2d_34">
    <path d="M 73.993418 253.048883 
L 77.173997 255.381769 
L 80.354577 263.905775 
L 83.535156 277.18528 
L 86.715736 280.774335 
L 89.896315 282.38941 
L 93.076895 288.311352 
L 96.257474 293.336029 
L 99.438054 296.745632 
L 102.618633 299.886055 
L 105.799213 300.065508 
L 108.979792 301.231951 
L 112.160371 302.577847 
L 115.340951 304.821006 
L 118.52153 303.295658 
L 121.70211 296.745632 
L 124.882689 277.903091 
L 128.063269 237.077586 
L 131.243848 198.405515 
L 134.424428 161.886876 
L 137.605007 159.733443 
L 140.785587 146.633391 
L 143.966166 135.507319 
L 147.146745 125.099059 
L 150.327325 118.728485 
L 153.507904 101.052388 
L 156.688484 99.706492 
L 159.869063 95.309899 
L 163.049643 99.706492 
L 166.230222 82.3893 
L 169.410802 73.865293 
L 172.591381 70.096785 
L 175.771961 69.289248 
L 178.95254 70.096785 
L 182.133119 72.96803 
L 185.313699 72.788577 
L 188.494278 65.072108 
L 191.674858 75.031736 
L 194.855437 107.243508 
L 198.036017 110.653111 
L 201.216596 113.703808 
L 204.397176 123.214805 
L 210.758335 156.862199 
L 213.938914 196.880166 
L 217.119494 219.401488 
L 220.300073 228.463853 
L 223.480652 240.21801 
L 226.661232 246.319404 
L 229.841811 254.663957 
L 233.022391 254.394778 
L 236.20297 259.419456 
L 239.38355 262.111247 
L 242.564129 259.419456 
L 245.744709 271.173612 
L 248.925288 269.648264 
L 252.105868 275.211299 
L 255.286447 278.890081 
L 258.467026 278.531176 
L 261.647606 282.568863 
L 264.828185 284.812023 
L 268.008765 266.148935 
L 271.189344 281.222967 
L 274.369924 280.056524 
L 277.550503 254.394778 
L 280.731083 222.900817 
L 283.911662 171.487599 
L 287.092242 153.183417 
L 290.272821 131.110726 
L 293.453401 121.868909 
L 296.63398 123.57371 
L 299.814559 103.385274 
L 302.995139 102.398284 
L 306.175718 88.939326 
L 309.356298 76.377632 
L 312.536877 66.418003 
L 315.717457 66.597456 
L 318.898036 68.302258 
L 322.078616 62.918675 
L 325.259195 61.752232 
L 328.439775 57.176186 
L 331.620354 46.767925 
L 334.800933 58.880987 
L 337.981513 56.548101 
L 341.162092 55.471385 
L 344.342672 62.739222 
L 347.523251 80.684499 
L 350.703831 85.61945 
L 353.88441 91.003033 
L 357.06499 116.664779 
L 360.245569 140.083365 
L 363.426149 152.196427 
L 366.606728 176.332824 
L 369.787307 186.471906 
L 372.967887 193.021932 
L 376.148466 205.583625 
L 379.329046 213.659 
L 385.690205 237.346765 
L 388.870784 240.935821 
L 392.051364 239.231019 
L 395.231943 249.63928 
L 398.412523 239.051567 
L 401.593102 236.359775 
L 404.773682 246.947488 
L 407.954261 248.113931 
L 411.13484 257.355749 
L 414.31542 257.894107 
L 417.495999 259.419456 
L 420.676579 264.623586 
L 423.857158 267.135925 
L 427.037738 262.2907 
L 430.218317 242.102264 
L 433.398897 204.23773 
L 436.579476 147.261476 
L 439.760056 136.49431 
L 442.940635 124.5607 
L 446.121214 121.868909 
L 449.301794 104.73117 
L 452.482373 107.961319 
L 458.843532 77.992707 
L 462.024112 68.750889 
L 465.204691 57.176186 
L 468.385271 55.83029 
L 471.56585 56.009743 
L 474.74643 50.805613 
L 477.927009 52.151508 
L 481.107589 69.109795 
L 484.288168 66.059098 
L 487.468747 57.355639 
L 490.649327 49.100811 
L 493.829906 49.998075 
L 497.010486 54.663847 
L 500.191065 79.069424 
L 503.371645 83.37629 
L 506.552224 86.785893 
L 509.732804 100.424303 
L 512.913383 134.161424 
L 516.093963 170.321156 
L 519.274542 188.625339 
L 522.455121 182.88285 
L 525.635701 186.113 
L 528.81628 202.263749 
L 531.99686 197.239072 
L 535.177439 146.812844 
L 538.358019 152.016974 
L 541.538598 155.33685 
L 544.719178 169.603345 
L 547.899757 160.899886 
L 551.080337 168.436902 
L 554.260916 173.371853 
L 557.441496 173.192401 
L 560.622075 173.371853 
L 563.802654 177.67872 
L 566.983234 184.228746 
L 570.163813 186.292453 
L 573.344393 194.367827 
L 576.524972 209.980218 
L 579.705552 221.734374 
L 582.886131 204.955541 
L 586.066711 183.421208 
L 589.24729 151.11971 
L 595.608449 116.664779 
L 598.789028 107.243508 
L 601.969608 103.923632 
L 605.150187 104.551717 
L 608.330767 93.156466 
L 611.511346 88.939326 
L 614.691926 83.107111 
L 617.872505 58.522082 
L 621.053085 61.03442 
L 624.233664 46.947378 
L 627.414244 51.61315 
L 630.594823 54.663847 
L 633.775402 85.439997 
L 636.955982 86.247534 
L 640.136561 111.281196 
L 643.317141 159.733443 
L 646.49772 176.063645 
L 649.6783 204.955541 
L 652.858879 193.021932 
L 656.039459 193.021932 
L 659.220038 187.817801 
L 662.400618 176.871182 
L 665.581197 158.028642 
L 668.761777 148.786824 
L 668.761777 148.786824 
" clip-path="url(#p624c7b8a59)" style="fill: none; stroke-dasharray: 5.55,2.4; stroke-dashoffset: 0; stroke: #d62728; stroke-width: 1.5"/>
   </g>
   <g id="line2d_35">
    <path d="M 73.993418 245.601593 
L 77.173997 250.62627 
L 80.354577 259.598909 
L 83.535156 272.340055 
L 86.715736 278.710628 
L 89.896315 280.41543 
L 93.076895 285.978466 
L 96.257474 290.464785 
L 99.438054 292.349039 
L 102.618633 296.386726 
L 105.799213 298.719612 
L 108.979792 300.244961 
L 112.160371 300.603866 
L 115.340951 301.770309 
L 118.52153 299.078518 
L 121.70211 291.990133 
L 124.882689 269.289358 
L 128.063269 240.935821 
L 131.243848 216.350791 
L 134.424428 182.254765 
L 137.605007 170.321156 
L 140.785587 153.003964 
L 143.966166 146.095033 
L 147.146745 135.148414 
L 150.327325 132.994981 
L 156.688484 101.770199 
L 159.869063 98.360596 
L 163.049643 100.693482 
L 166.230222 86.068082 
L 169.410802 86.247534 
L 172.591381 76.377632 
L 175.771961 79.069424 
L 178.95254 77.992707 
L 182.133119 80.056414 
L 185.313699 74.672831 
L 188.494278 71.981039 
L 191.674858 62.739222 
L 194.855437 73.326935 
L 198.036017 74.134473 
L 201.216596 72.339945 
L 204.397176 94.322909 
L 207.577755 130.123736 
L 210.758335 169.154713 
L 213.938914 195.53427 
L 217.119494 214.556264 
L 220.300073 224.426166 
L 223.480652 236.00087 
L 226.661232 241.563905 
L 229.841811 247.6653 
L 233.022391 249.280374 
L 236.20297 252.689977 
L 239.38355 257.894107 
L 242.564129 258.701645 
L 245.744709 268.661273 
L 248.925288 267.674283 
L 252.105868 271.801697 
L 255.286447 277.18528 
L 258.467026 277.18528 
L 261.647606 281.222967 
L 264.828185 284.453117 
L 268.008765 267.135925 
L 271.189344 280.056524 
L 274.369924 277.544185 
L 277.550503 248.113931 
L 280.731083 226.130967 
L 283.911662 201.545938 
L 287.092242 174.538296 
L 290.272821 151.299163 
L 293.453401 136.49431 
L 296.63398 130.482642 
L 299.814559 114.331893 
L 302.995139 102.577736 
L 306.175718 89.477684 
L 309.356298 83.107111 
L 312.536877 76.018727 
L 315.717457 72.160492 
L 318.898036 64.444023 
L 322.078616 70.455691 
L 325.259195 57.176186 
L 328.439775 64.085118 
L 331.620354 49.100811 
L 334.800933 52.330961 
L 337.981513 58.880987 
L 341.162092 57.714544 
L 344.342672 58.880987 
L 347.523251 54.484394 
L 350.703831 59.509072 
L 353.88441 56.189196 
L 357.06499 112.627091 
L 360.245569 133.533339 
L 363.426149 156.32384 
L 366.606728 173.641033 
L 369.787307 185.12601 
L 372.967887 190.509593 
L 376.148466 203.430192 
L 379.329046 210.518576 
L 382.509625 222.452186 
L 385.690205 233.309078 
L 388.870784 237.346765 
L 392.051364 235.372785 
L 395.231943 246.768036 
L 398.412523 233.488531 
L 401.593102 234.834427 
L 404.773682 241.922811 
L 407.954261 245.781045 
L 411.13484 255.8304 
L 414.31542 255.381769 
L 417.495999 258.522192 
L 420.676579 262.111247 
L 423.857158 264.803039 
L 427.037738 261.572889 
L 430.218317 237.885124 
L 433.398897 206.480889 
L 436.579476 178.575984 
L 439.760056 149.325182 
L 442.940635 138.019658 
L 446.121214 125.637417 
L 449.301794 111.281196 
L 452.482373 108.589404 
L 455.662953 93.694824 
L 458.843532 81.043404 
L 462.024112 73.147482 
L 465.204691 67.763899 
L 468.385271 62.739222 
L 471.56585 59.509072 
L 474.74643 49.818622 
L 477.927009 50.805613 
L 481.107589 80.415319 
L 484.288168 69.648153 
L 487.468747 56.81728 
L 490.649327 53.138499 
L 493.829906 43.537776 
L 497.010486 45.780935 
L 500.191065 61.03442 
L 503.371645 61.572779 
L 506.552224 73.685841 
L 509.732804 92.79756 
L 512.913383 130.123736 
L 516.093963 164.758121 
L 519.274542 184.408199 
L 522.455121 179.562974 
L 525.635701 183.780114 
L 528.81628 200.200042 
L 531.99686 197.239072 
L 535.177439 147.082023 
L 538.358019 150.671078 
L 541.538598 154.977945 
L 544.719178 165.475932 
L 547.899757 160.899886 
L 551.080337 167.270459 
L 554.260916 173.012948 
L 557.441496 174.179391 
L 560.622075 173.999938 
L 563.802654 178.037625 
L 566.983234 184.767104 
L 570.163813 183.959567 
L 573.344393 192.842479 
L 576.524972 207.647332 
L 579.705552 220.747384 
L 582.886131 203.609645 
L 586.066711 192.842479 
L 589.24729 173.641033 
L 595.608449 141.429261 
L 598.789028 126.444954 
L 601.969608 113.16545 
L 605.150187 110.294205 
L 608.330767 98.360596 
L 611.511346 91.003033 
L 614.691926 86.426987 
L 617.872505 74.493378 
L 621.053085 69.827606 
L 624.233664 57.535091 
L 627.414244 59.509072 
L 630.594823 54.8433 
L 633.775402 89.477684 
L 636.955982 89.657137 
L 640.136561 112.178459 
L 643.317141 160.092349 
L 646.49772 170.321156 
L 649.6783 197.867156 
L 652.858879 188.625339 
L 656.039459 190.509593 
L 659.220038 184.946557 
L 662.400618 175.525287 
L 665.581197 155.875209 
L 668.761777 149.504635 
L 668.761777 149.504635 
" clip-path="url(#p624c7b8a59)" style="fill: none; stroke-dasharray: 5.55,2.4; stroke-dashoffset: 0; stroke: #9467bd; stroke-width: 1.5"/>
   </g>
   <g id="line2d_36">
    <path d="M 73.993418 247.934479 
L 77.173997 253.497514 
L 80.354577 261.931795 
L 83.535156 274.852394 
L 86.715736 282.120231 
L 89.896315 283.735306 
L 93.076895 289.657247 
L 96.257474 291.182596 
L 99.438054 295.399736 
L 102.618633 298.091527 
L 105.799213 301.770309 
L 108.979792 301.949762 
L 112.160371 303.116205 
L 115.340951 304.462101 
L 118.52153 300.783319 
L 121.70211 295.848368 
L 124.882689 279.607892 
L 128.063269 219.222036 
L 131.243848 199.213052 
L 134.424428 168.25745 
L 137.605007 167.270459 
L 140.785587 153.36287 
L 143.966166 138.916922 
L 147.146745 127.970303 
L 150.327325 126.983313 
L 153.507904 115.498336 
L 156.688484 110.114753 
L 159.869063 102.757189 
L 163.049643 103.923632 
L 166.230222 92.977013 
L 172.591381 76.557085 
L 175.771961 69.109795 
L 178.95254 73.865293 
L 182.133119 69.289248 
L 185.313699 72.788577 
L 191.674858 67.404994 
L 194.855437 77.723528 
L 198.036017 89.83659 
L 201.216596 116.216147 
L 204.397176 121.868909 
L 207.577755 140.083365 
L 210.758335 171.308147 
L 213.938914 196.700713 
L 217.119494 215.722707 
L 220.300073 227.117958 
L 223.480652 234.834427 
L 226.661232 240.397462 
L 229.841811 246.947488 
L 233.022391 254.035873 
L 236.20297 256.548212 
L 239.38355 258.881098 
L 242.564129 263.636596 
L 245.744709 267.49483 
L 248.925288 269.289358 
L 252.105868 272.878413 
L 255.286447 279.607892 
L 258.467026 279.607892 
L 261.647606 282.120231 
L 264.828185 285.260654 
L 268.008765 274.672941 
L 271.189344 280.594882 
L 274.369924 278.890081 
L 277.550503 258.522192 
L 280.731083 210.159671 
L 283.911662 185.754094 
L 287.092242 165.745111 
L 290.272821 137.571026 
L 293.453401 131.649085 
L 296.63398 126.086049 
L 299.814559 103.564727 
L 302.995139 109.9353 
L 306.175718 96.835248 
L 309.356298 85.260544 
L 312.536877 77.544075 
L 315.717457 75.659821 
L 318.898036 70.276238 
L 322.078616 68.302258 
L 325.259195 65.072108 
L 328.439775 56.548101 
L 331.620354 55.83029 
L 334.800933 56.996733 
L 337.981513 63.098127 
L 341.162092 54.125489 
L 344.342672 53.138499 
L 347.523251 55.202205 
L 350.703831 66.238551 
L 353.88441 93.515372 
L 357.06499 113.344902 
L 360.245569 140.083365 
L 363.426149 159.374537 
L 366.606728 176.063645 
L 369.787307 185.933547 
L 372.967887 191.855489 
L 376.148466 204.23773 
L 379.329046 211.505567 
L 382.509625 224.605619 
L 385.690205 234.834427 
L 388.870784 237.346765 
L 392.051364 240.038557 
L 395.231943 247.485847 
L 398.412523 237.346765 
L 401.593102 236.180322 
L 404.773682 244.973508 
L 407.954261 247.485847 
L 411.13484 257.535202 
L 414.31542 256.009853 
L 417.495999 258.07356 
L 420.676579 263.457143 
L 423.857158 265.969482 
L 427.037738 262.559879 
L 430.218317 246.139951 
L 433.398897 184.408199 
L 436.579476 152.645059 
L 439.760056 138.558016 
L 442.940635 132.636075 
L 446.121214 124.5607 
L 449.301794 111.460648 
L 452.482373 102.757189 
L 455.662953 93.515372 
L 458.843532 78.531065 
L 465.204691 69.109795 
L 468.385271 65.072108 
L 471.56585 60.585789 
L 474.74643 57.176186 
L 477.927009 58.163176 
L 481.107589 77.992707 
L 484.288168 65.610466 
L 487.468747 50.985065 
L 490.649327 55.202205 
L 493.829906 43.537776 
L 497.010486 45.960388 
L 503.371645 67.943352 
L 506.552224 88.311241 
L 509.732804 100.693482 
L 512.913383 132.815528 
L 516.093963 168.25745 
L 519.274542 185.754094 
L 522.455121 178.396531 
L 525.635701 186.471906 
L 528.81628 201.545938 
L 531.99686 201.545938 
L 535.177439 149.773814 
L 538.358019 151.837521 
L 541.538598 155.516303 
L 544.719178 170.500609 
L 547.899757 161.438244 
L 551.080337 167.629365 
L 554.260916 174.179391 
L 557.441496 175.525287 
L 560.622075 175.525287 
L 566.983234 186.113 
L 570.163813 185.754094 
L 573.344393 194.995912 
L 576.524972 209.800765 
L 579.705552 219.580941 
L 582.886131 206.301436 
L 586.066711 176.871182 
L 589.24729 154.708766 
L 592.42787 140.890902 
L 595.608449 136.853215 
L 598.789028 128.149756 
L 601.969608 104.73117 
L 605.150187 106.974329 
L 608.330767 97.732512 
L 611.511346 91.451665 
L 614.691926 86.60644 
L 617.872505 69.289248 
L 621.053085 62.380316 
L 624.233664 62.200863 
L 627.414244 58.701534 
L 630.594823 59.688525 
L 633.775402 88.939326 
L 636.955982 89.83659 
L 640.136561 111.640101 
L 643.317141 159.015632 
L 646.49772 174.538296 
L 649.6783 208.45487 
L 652.858879 189.34315 
L 656.039459 190.33014 
L 659.220038 184.228746 
L 662.400618 173.641033 
L 665.581197 154.34986 
L 668.761777 147.082023 
L 668.761777 147.082023 
" clip-path="url(#p624c7b8a59)" style="fill: none; stroke-dasharray: 5.55,2.4; stroke-dashoffset: 0; stroke: #8c564b; stroke-width: 1.5"/>
   </g>
   <g id="patch_3">
    <path d="M 44.255 318.76 
L 44.255 25.92 
" style="fill: none; stroke: #000000; stroke-width: 0.8; stroke-linejoin: miter; stroke-linecap: square"/>
   </g>
   <g id="patch_4">
    <path d="M 698.500194 318.76 
L 698.500194 25.92 
" style="fill: none; stroke: #000000; stroke-width: 0.8; stroke-linejoin: miter; stroke-linecap: square"/>
   </g>
   <g id="patch_5">
    <path d="M 44.255 318.76 
L 698.500194 318.76 
" style="fill: none; stroke: #000000; stroke-width: 0.8; stroke-linejoin: miter; stroke-linecap: square"/>
   </g>
   <g id="patch_6">
    <path d="M 44.255 25.92 
L 698.500194 25.92 
" style="fill: none; stroke: #000000; stroke-width: 0.8; stroke-linejoin: miter; stroke-linecap: square"/>
   </g>
   <g id="text_18">
    <!-- Serie temporal de temperatura - Sensores con y sin OTC -->
    <g transform="translate(201.82041 19.92) scale(0.12 -0.12)">
     <defs>
      <path id="DejaVuSans-53" d="M 3425 4513 
L 3425 3897 
Q 3066 4069 2747 4153 
Q 2428 4238 2131 4238 
Q 1616 4238 1336 4038 
Q 1056 3838 1056 3469 
Q 1056 3159 1242 3001 
Q 1428 2844 1947 2747 
L 2328 2669 
Q 3034 2534 3370 2195 
Q 3706 1856 3706 1288 
Q 3706 609 3251 259 
Q 2797 -91 1919 -91 
Q 1588 -91 1214 -16 
Q 841 59 441 206 
L 441 856 
Q 825 641 1194 531 
Q 1563 422 1919 422 
Q 2459 422 2753 634 
Q 3047 847 3047 1241 
Q 3047 1584 2836 1778 
Q 2625 1972 2144 2069 
L 1759 2144 
Q 1053 2284 737 2584 
Q 422 2884 422 3419 
Q 422 4038 858 4394 
Q 1294 4750 2059 4750 
Q 2388 4750 2728 4690 
Q 3069 4631 3425 4513 
z
" transform="scale(0.015625)"/>
      <path id="DejaVuSans-69" d="M 603 3500 
L 1178 3500 
L 1178 0 
L 603 0 
L 603 3500 
z
M 603 4863 
L 1178 4863 
L 1178 4134 
L 603 4134 
L 603 4863 
z
" transform="scale(0.015625)"/>
      <path id="DejaVuSans-6c" d="M 603 4863 
L 1178 4863 
L 1178 0 
L 603 0 
L 603 4863 
z
" transform="scale(0.015625)"/>
      <path id="DejaVuSans-64" d="M 2906 2969 
L 2906 4863 
L 3481 4863 
L 3481 0 
L 2906 0 
L 2906 525 
Q 2725 213 2448 61 
Q 2172 -91 1784 -91 
Q 1150 -91 751 415 
Q 353 922 353 1747 
Q 353 2572 751 3078 
Q 1150 3584 1784 3584 
Q 2172 3584 2448 3432 
Q 2725 3281 2906 2969 
z
M 947 1747 
Q 947 1113 1208 752 
Q 1469 391 1925 391 
Q 2381 391 2643 752 
Q 2906 1113 2906 1747 
Q 2906 2381 2643 2742 
Q 2381 3103 1925 3103 
Q 1469 3103 1208 2742 
Q 947 2381 947 1747 
z
" transform="scale(0.015625)"/>
      <path id="DejaVuSans-6e" d="M 3513 2113 
L 3513 0 
L 2938 0 
L 2938 2094 
Q 2938 2591 2744 2837 
Q 2550 3084 2163 3084 
Q 1697 3084 1428 2787 
Q 1159 2491 1159 1978 
L 1159 0 
L 581 0 
L 581 3500 
L 1159 3500 
L 1159 2956 
Q 1366 3272 1645 3428 
Q 1925 3584 2291 3584 
Q 2894 3584 3203 3211 
Q 3513 2838 3513 2113 
z
" transform="scale(0.015625)"/>
      <path id="DejaVuSans-73" d="M 2834 3397 
L 2834 2853 
Q 2591 2978 2328 3040 
Q 2066 3103 1784 3103 
Q 1356 3103 1142 2972 
Q 928 2841 928 2578 
Q 928 2378 1081 2264 
Q 1234 2150 1697 2047 
L 1894 2003 
Q 2506 1872 2764 1633 
Q 3022 1394 3022 966 
Q 3022 478 2636 193 
Q 2250 -91 1575 -91 
Q 1294 -91 989 -36 
Q 684 19 347 128 
L 347 722 
Q 666 556 975 473 
Q 1284 391 1588 391 
Q 1994 391 2212 530 
Q 2431 669 2431 922 
Q 2431 1156 2273 1281 
Q 2116 1406 1581 1522 
L 1381 1569 
Q 847 1681 609 1914 
Q 372 2147 372 2553 
Q 372 3047 722 3315 
Q 1072 3584 1716 3584 
Q 2034 3584 2315 3537 
Q 2597 3491 2834 3397 
z
" transform="scale(0.015625)"/>
      <path id="DejaVuSans-4f" d="M 2522 4238 
Q 1834 4238 1429 3725 
Q 1025 3213 1025 2328 
Q 1025 1447 1429 934 
Q 1834 422 2522 422 
Q 3209 422 3611 934 
Q 4013 1447 4013 2328 
Q 4013 3213 3611 3725 
Q 3209 4238 2522 4238 
z
M 2522 4750 
Q 3503 4750 4090 4092 
Q 4678 3434 4678 2328 
Q 4678 1225 4090 567 
Q 3503 -91 2522 -91 
Q 1538 -91 948 565 
Q 359 1222 359 2328 
Q 359 3434 948 4092 
Q 1538 4750 2522 4750 
z
" transform="scale(0.015625)"/>
     </defs>
     <use xlink:href="#DejaVuSans-53"/>
     <use xlink:href="#DejaVuSans-65" transform="translate(63.476562 0)"/>
     <use xlink:href="#DejaVuSans-72" transform="translate(125 0)"/>
     <use xlink:href="#DejaVuSans-69" transform="translate(166.113281 0)"/>
     <use xlink:href="#DejaVuSans-65" transform="translate(193.896484 0)"/>
     <use xlink:href="#DejaVuSans-20" transform="translate(255.419922 0)"/>
     <use xlink:href="#DejaVuSans-74" transform="translate(287.207031 0)"/>
     <use xlink:href="#DejaVuSans-65" transform="translate(326.416016 0)"/>
     <use xlink:href="#DejaVuSans-6d" transform="translate(387.939453 0)"/>
     <use xlink:href="#DejaVuSans-70" transform="translate(485.351562 0)"/>
     <use xlink:href="#DejaVuSans-6f" transform="translate(548.828125 0)"/>
     <use xlink:href="#DejaVuSans-72" transform="translate(610.009766 0)"/>
     <use xlink:href="#DejaVuSans-61" transform="translate(651.123047 0)"/>
     <use xlink:href="#DejaVuSans-6c" transform="translate(712.402344 0)"/>
     <use xlink:href="#DejaVuSans-20" transform="translate(740.185547 0)"/>
     <use xlink:href="#DejaVuSans-64" transform="translate(771.972656 0)"/>
     <use xlink:href="#DejaVuSans-65" transform="translate(835.449219 0)"/>
     <use xlink:href="#DejaVuSans-20" transform="translate(896.972656 0)"/>
     <use xlink:href="#DejaVuSans-74" transform="translate(928.759766 0)"/>
     <use xlink:href="#DejaVuSans-65" transform="translate(967.96875 0)"/>
     <use xlink:href="#DejaVuSans-6d" transform="translate(1029.492188 0)"/>
     <use xlink:href="#DejaVuSans-70" transform="translate(1126.904297 0)"/>
     <use xlink:href="#DejaVuSans-65" transform="translate(1190.380859 0)"/>
     <use xlink:href="#DejaVuSans-72" transform="translate(1251.904297 0)"/>
     <use xlink:href="#DejaVuSans-61" transform="translate(1293.017578 0)"/>
     <use xlink:href="#DejaVuSans-74" transform="translate(1354.296875 0)"/>
     <use xlink:href="#DejaVuSans-75" transform="translate(1393.505859 0)"/>
     <use xlink:href="#DejaVuSans-72" transform="translate(1456.884766 0)"/>
     <use xlink:href="#DejaVuSans-61" transform="translate(1497.998047 0)"/>
     <use xlink:href="#DejaVuSans-20" transform="translate(1559.277344 0)"/>
     <use xlink:href="#DejaVuSans-2d" transform="translate(1591.064453 0)"/>
     <use xlink:href="#DejaVuSans-20" transform="translate(1627.148438 0)"/>
     <use xlink:href="#DejaVuSans-53" transform="translate(1658.935547 0)"/>
     <use xlink:href="#DejaVuSans-65" transform="translate(1722.412109 0)"/>
     <use xlink:href="#DejaVuSans-6e" transform="translate(1783.935547 0)"/>
     <use xlink:href="#DejaVuSans-73" transform="translate(1847.314453 0)"/>
     <use xlink:href="#DejaVuSans-6f" transform="translate(1899.414062 0)"/>
     <use xlink:href="#DejaVuSans-72" transform="translate(1960.595703 0)"/>
     <use xlink:href="#DejaVuSans-65" transform="translate(1999.458984 0)"/>
     <use xlink:href="#DejaVuSans-73" transform="translate(2060.982422 0)"/>
     <use xlink:href="#DejaVuSans-20" transform="translate(2113.082031 0)"/>
     <use xlink:href="#DejaVuSans-63" transform="translate(2144.869141 0)"/>
     <use xlink:href="#DejaVuSans-6f" transform="translate(2199.849609 0)"/>
     <use xlink:href="#DejaVuSans-6e" transform="translate(2261.03125 0)"/>
     <use xlink:href="#DejaVuSans-20" transform="translate(2324.410156 0)"/>
     <use xlink:href="#DejaVuSans-79" transform="translate(2356.197266 0)"/>
     <use xlink:href="#DejaVuSans-20" transform="translate(2415.376953 0)"/>
     <use xlink:href="#DejaVuSans-73" transform="translate(2447.164062 0)"/>
     <use xlink:href="#DejaVuSans-69" transform="translate(2499.263672 0)"/>
     <use xlink:href="#DejaVuSans-6e" transform="translate(2527.046875 0)"/>
     <use xlink:href="#DejaVuSans-20" transform="translate(2590.425781 0)"/>
     <use xlink:href="#DejaVuSans-4f" transform="translate(2622.212891 0)"/>
     <use xlink:href="#DejaVuSans-54" transform="translate(2700.923828 0)"/>
     <use xlink:href="#DejaVuSans-43" transform="translate(2756.132812 0)"/>
    </g>
   </g>
   <g id="legend_1">
    <g id="patch_7">
     <path d="M 51.255 136.666875 
L 111.556563 136.666875 
Q 113.556563 136.666875 113.556563 134.666875 
L 113.556563 32.92 
Q 113.556563 30.92 111.556563 30.92 
L 51.255 30.92 
Q 49.255 30.92 49.255 32.92 
L 49.255 134.666875 
Q 49.255 136.666875 51.255 136.666875 
z
" style="fill: #ffffff; opacity: 0.8; stroke: #cccccc; stroke-linejoin: miter"/>
    </g>
    <g id="text_19">
     <!-- Sensores -->
     <g transform="translate(58.697969 42.518438) scale(0.1 -0.1)">
      <use xlink:href="#DejaVuSans-53"/>
      <use xlink:href="#DejaVuSans-65" transform="translate(63.476562 0)"/>
      <use xlink:href="#DejaVuSans-6e" transform="translate(125 0)"/>
      <use xlink:href="#DejaVuSans-73" transform="translate(188.378906 0)"/>
      <use xlink:href="#DejaVuSans-6f" transform="translate(240.478516 0)"/>
      <use xlink:href="#DejaVuSans-72" transform="translate(301.660156 0)"/>
      <use xlink:href="#DejaVuSans-65" transform="translate(340.523438 0)"/>
      <use xlink:href="#DejaVuSans-73" transform="translate(402.046875 0)"/>
     </g>
    </g>
    <g id="line2d_37">
     <path d="M 53.255 53.696563 
L 63.255 53.696563 
L 73.255 53.696563 
" style="fill: none; stroke: #1f77b4; stroke-width: 1.5; stroke-linecap: square"/>
    </g>
    <g id="text_20">
     <!-- 2LR2 -->
     <g transform="translate(81.255 57.196563) scale(0.1 -0.1)">
      <defs>
       <path id="DejaVuSans-4c" d="M 628 4666 
L 1259 4666 
L 1259 531 
L 3531 531 
L 3531 0 
L 628 0 
L 628 4666 
z
" transform="scale(0.015625)"/>
       <path id="DejaVuSans-52" d="M 2841 2188 
Q 3044 2119 3236 1894 
Q 3428 1669 3622 1275 
L 4263 0 
L 3584 0 
L 2988 1197 
Q 2756 1666 2539 1819 
Q 2322 1972 1947 1972 
L 1259 1972 
L 1259 0 
L 628 0 
L 628 4666 
L 2053 4666 
Q 2853 4666 3247 4331 
Q 3641 3997 3641 3322 
Q 3641 2881 3436 2590 
Q 3231 2300 2841 2188 
z
M 1259 4147 
L 1259 2491 
L 2053 2491 
Q 2509 2491 2742 2702 
Q 2975 2913 2975 3322 
Q 2975 3731 2742 3939 
Q 2509 4147 2053 4147 
L 1259 4147 
z
" transform="scale(0.015625)"/>
      </defs>
      <use xlink:href="#DejaVuSans-32"/>
      <use xlink:href="#DejaVuSans-4c" transform="translate(63.623047 0)"/>
      <use xlink:href="#DejaVuSans-52" transform="translate(119.335938 0)"/>
      <use xlink:href="#DejaVuSans-32" transform="translate(188.818359 0)"/>
     </g>
    </g>
    <g id="line2d_38">
     <path d="M 53.255 68.374688 
L 63.255 68.374688 
L 73.255 68.374688 
" style="fill: none; stroke: #ff7f0e; stroke-width: 1.5; stroke-linecap: square"/>
    </g>
    <g id="text_21">
     <!-- 2TR2 -->
     <g transform="translate(81.255 71.874688) scale(0.1 -0.1)">
      <use xlink:href="#DejaVuSans-32"/>
      <use xlink:href="#DejaVuSans-54" transform="translate(63.623047 0)"/>
      <use xlink:href="#DejaVuSans-52" transform="translate(124.707031 0)"/>
      <use xlink:href="#DejaVuSans-32" transform="translate(194.189453 0)"/>
     </g>
    </g>
    <g id="line2d_39">
     <path d="M 53.255 83.052813 
L 63.255 83.052813 
L 73.255 83.052813 
" style="fill: none; stroke: #2ca02c; stroke-width: 1.5; stroke-linecap: square"/>
    </g>
    <g id="text_22">
     <!-- 2MR2 -->
     <g transform="translate(81.255 86.552813) scale(0.1 -0.1)">
      <defs>
       <path id="DejaVuSans-4d" d="M 628 4666 
L 1569 4666 
L 2759 1491 
L 3956 4666 
L 4897 4666 
L 4897 0 
L 4281 0 
L 4281 4097 
L 3078 897 
L 2444 897 
L 1241 4097 
L 1241 0 
L 628 0 
L 628 4666 
z
" transform="scale(0.015625)"/>
      </defs>
      <use xlink:href="#DejaVuSans-32"/>
      <use xlink:href="#DejaVuSans-4d" transform="translate(63.623047 0)"/>
      <use xlink:href="#DejaVuSans-52" transform="translate(149.902344 0)"/>
      <use xlink:href="#DejaVuSans-32" transform="translate(219.384766 0)"/>
     </g>
    </g>
    <g id="line2d_40">
     <path d="M 53.255 97.730938 
L 63.255 97.730938 
L 73.255 97.730938 
" style="fill: none; stroke-dasharray: 5.55,2.4; stroke-dashoffset: 0; stroke: #d62728; stroke-width: 1.5"/>
    </g>
    <g id="text_23">
     <!-- 1LR2 -->
     <g transform="translate(81.255 101.230938) scale(0.1 -0.1)">
      <use xlink:href="#DejaVuSans-31"/>
      <use xlink:href="#DejaVuSans-4c" transform="translate(63.623047 0)"/>
      <use xlink:href="#DejaVuSans-52" transform="translate(119.335938 0)"/>
      <use xlink:href="#DejaVuSans-32" transform="translate(188.818359 0)"/>
     </g>
    </g>
    <g id="line2d_41">
     <path d="M 53.255 112.409063 
L 63.255 112.409063 
L 73.255 112.409063 
" style="fill: none; stroke-dasharray: 5.55,2.4; stroke-dashoffset: 0; stroke: #9467bd; stroke-width: 1.5"/>
    </g>
    <g id="text_24">
     <!-- 1TR2 -->
     <g transform="translate(81.255 115.909063) scale(0.1 -0.1)">
      <use xlink:href="#DejaVuSans-31"/>
      <use xlink:href="#DejaVuSans-54" transform="translate(63.623047 0)"/>
      <use xlink:href="#DejaVuSans-52" transform="translate(124.707031 0)"/>
      <use xlink:href="#DejaVuSans-32" transform="translate(194.189453 0)"/>
     </g>
    </g>
    <g id="line2d_42">
     <path d="M 53.255 127.087188 
L 63.255 127.087188 
L 73.255 127.087188 
" style="fill: none; stroke-dasharray: 5.55,2.4; stroke-dashoffset: 0; stroke: #8c564b; stroke-width: 1.5"/>
    </g>
    <g id="text_25">
     <!-- 1MR2 -->
     <g transform="translate(81.255 130.587188) scale(0.1 -0.1)">
      <use xlink:href="#DejaVuSans-31"/>
      <use xlink:href="#DejaVuSans-4d" transform="translate(63.623047 0)"/>
      <use xlink:href="#DejaVuSans-52" transform="translate(149.902344 0)"/>
      <use xlink:href="#DejaVuSans-32" transform="translate(219.384766 0)"/>
     </g>
    </g>
   </g>
  </g>
 </g>
 <defs>
  <clipPath id="p624c7b8a59">
   <rect x="44.255" y="25.92" width="654.245194" height="292.84"/>
  </clipPath>
 </defs>
</svg>
