<?xml version="1.0" encoding="utf-8" standalone="no"?>
<!DOCTYPE svg PUBLIC "-//W3C//DTD SVG 1.1//EN"
  "http://www.w3.org/Graphics/SVG/1.1/DTD/svg11.dtd">
<svg xmlns:xlink="http://www.w3.org/1999/xlink" width="710.274808pt" height="351.754375pt" viewBox="0 0 710.274808 351.754375" xmlns="http://www.w3.org/2000/svg" version="1.1">
 <metadata>
  <rdf:RDF xmlns:dc="http://purl.org/dc/elements/1.1/" xmlns:cc="http://creativecommons.org/ns#" xmlns:rdf="http://www.w3.org/1999/02/22-rdf-syntax-ns#">
   <cc:Work>
    <dc:type rdf:resource="http://purl.org/dc/dcmitype/StillImage"/>
    <dc:date>2025-10-14T01:33:13.183759</dc:date>
    <dc:format>image/svg+xml</dc:format>
    <dc:creator>
     <cc:Agent>
      <dc:title>Matplotlib v3.10.3, https://matplotlib.org/</dc:title>
     </cc:Agent>
    </dc:creator>
   </cc:Work>
  </rdf:RDF>
 </metadata>
 <defs>
  <style type="text/css">*{stroke-linejoin: round; stroke-linecap: butt}</style>
 </defs>
 <g id="figure_1">
  <g id="patch_1">
   <path d="M 0 351.754375 
L 710.274808 351.754375 
L 710.274808 0 
L 0 0 
z
" style="fill: #ffffff"/>
  </g>
  <g id="axes_1">
   <g id="patch_2">
    <path d="M 40.603125 314.198125 
L 694.420819 314.198125 
L 694.420819 22.318125 
L 40.603125 22.318125 
z
" style="fill: #ffffff"/>
   </g>
   <g id="matplotlib.axis_1">
    <g id="xtick_1">
     <g id="line2d_1">
      <path d="M 70.322111 314.198125 
L 70.322111 22.318125 
" clip-path="url(#pf462ed4d3e)" style="fill: none; stroke: #b0b0b0; stroke-opacity: 0.2; stroke-width: 0.8; stroke-linecap: square"/>
     </g>
     <g id="line2d_2">
      <defs>
       <path id="mb2761540c9" d="M 0 0 
L 0 3.5 
" style="stroke: #000000; stroke-width: 0.8"/>
      </defs>
      <g>
       <use xlink:href="#mb2761540c9" x="70.322111" y="314.198125" style="stroke: #000000; stroke-width: 0.8"/>
      </g>
     </g>
     <g id="text_1">
      <!-- 06-27 00 -->
      <g transform="translate(47.841642 328.796562) scale(0.1 -0.1)">
       <defs>
        <path id="DejaVuSans-30" d="M 2034 4250 
Q 1547 4250 1301 3770 
Q 1056 3291 1056 2328 
Q 1056 1369 1301 889 
Q 1547 409 2034 409 
Q 2525 409 2770 889 
Q 3016 1369 3016 2328 
Q 3016 3291 2770 3770 
Q 2525 4250 2034 4250 
z
M 2034 4750 
Q 2819 4750 3233 4129 
Q 3647 3509 3647 2328 
Q 3647 1150 3233 529 
Q 2819 -91 2034 -91 
Q 1250 -91 836 529 
Q 422 1150 422 2328 
Q 422 3509 836 4129 
Q 1250 4750 2034 4750 
z
" transform="scale(0.015625)"/>
        <path id="DejaVuSans-36" d="M 2113 2584 
Q 1688 2584 1439 2293 
Q 1191 2003 1191 1497 
Q 1191 994 1439 701 
Q 1688 409 2113 409 
Q 2538 409 2786 701 
Q 3034 994 3034 1497 
Q 3034 2003 2786 2293 
Q 2538 2584 2113 2584 
z
M 3366 4563 
L 3366 3988 
Q 3128 4100 2886 4159 
Q 2644 4219 2406 4219 
Q 1781 4219 1451 3797 
Q 1122 3375 1075 2522 
Q 1259 2794 1537 2939 
Q 1816 3084 2150 3084 
Q 2853 3084 3261 2657 
Q 3669 2231 3669 1497 
Q 3669 778 3244 343 
Q 2819 -91 2113 -91 
Q 1303 -91 875 529 
Q 447 1150 447 2328 
Q 447 3434 972 4092 
Q 1497 4750 2381 4750 
Q 2619 4750 2861 4703 
Q 3103 4656 3366 4563 
z
" transform="scale(0.015625)"/>
        <path id="DejaVuSans-2d" d="M 313 2009 
L 1997 2009 
L 1997 1497 
L 313 1497 
L 313 2009 
z
" transform="scale(0.015625)"/>
        <path id="DejaVuSans-32" d="M 1228 531 
L 3431 531 
L 3431 0 
L 469 0 
L 469 531 
Q 828 903 1448 1529 
Q 2069 2156 2228 2338 
Q 2531 2678 2651 2914 
Q 2772 3150 2772 3378 
Q 2772 3750 2511 3984 
Q 2250 4219 1831 4219 
Q 1534 4219 1204 4116 
Q 875 4013 500 3803 
L 500 4441 
Q 881 4594 1212 4672 
Q 1544 4750 1819 4750 
Q 2544 4750 2975 4387 
Q 3406 4025 3406 3419 
Q 3406 3131 3298 2873 
Q 3191 2616 2906 2266 
Q 2828 2175 2409 1742 
Q 1991 1309 1228 531 
z
" transform="scale(0.015625)"/>
        <path id="DejaVuSans-37" d="M 525 4666 
L 3525 4666 
L 3525 4397 
L 1831 0 
L 1172 0 
L 2766 4134 
L 525 4134 
L 525 4666 
z
" transform="scale(0.015625)"/>
        <path id="DejaVuSans-20" transform="scale(0.015625)"/>
       </defs>
       <use xlink:href="#DejaVuSans-30"/>
       <use xlink:href="#DejaVuSans-36" transform="translate(63.623047 0)"/>
       <use xlink:href="#DejaVuSans-2d" transform="translate(127.246094 0)"/>
       <use xlink:href="#DejaVuSans-32" transform="translate(163.330078 0)"/>
       <use xlink:href="#DejaVuSans-37" transform="translate(226.953125 0)"/>
       <use xlink:href="#DejaVuSans-20" transform="translate(290.576172 0)"/>
       <use xlink:href="#DejaVuSans-30" transform="translate(322.363281 0)"/>
       <use xlink:href="#DejaVuSans-30" transform="translate(385.986328 0)"/>
      </g>
     </g>
    </g>
    <g id="xtick_2">
     <g id="line2d_3">
      <path d="M 146.60614 314.198125 
L 146.60614 22.318125 
" clip-path="url(#pf462ed4d3e)" style="fill: none; stroke: #b0b0b0; stroke-opacity: 0.2; stroke-width: 0.8; stroke-linecap: square"/>
     </g>
     <g id="line2d_4">
      <g>
       <use xlink:href="#mb2761540c9" x="146.60614" y="314.198125" style="stroke: #000000; stroke-width: 0.8"/>
      </g>
     </g>
     <g id="text_2">
      <!-- 06-27 12 -->
      <g transform="translate(124.125671 328.796562) scale(0.1 -0.1)">
       <defs>
        <path id="DejaVuSans-31" d="M 794 531 
L 1825 531 
L 1825 4091 
L 703 3866 
L 703 4441 
L 1819 4666 
L 2450 4666 
L 2450 531 
L 3481 531 
L 3481 0 
L 794 0 
L 794 531 
z
" transform="scale(0.015625)"/>
       </defs>
       <use xlink:href="#DejaVuSans-30"/>
       <use xlink:href="#DejaVuSans-36" transform="translate(63.623047 0)"/>
       <use xlink:href="#DejaVuSans-2d" transform="translate(127.246094 0)"/>
       <use xlink:href="#DejaVuSans-32" transform="translate(163.330078 0)"/>
       <use xlink:href="#DejaVuSans-37" transform="translate(226.953125 0)"/>
       <use xlink:href="#DejaVuSans-20" transform="translate(290.576172 0)"/>
       <use xlink:href="#DejaVuSans-31" transform="translate(322.363281 0)"/>
       <use xlink:href="#DejaVuSans-32" transform="translate(385.986328 0)"/>
      </g>
     </g>
    </g>
    <g id="xtick_3">
     <g id="line2d_5">
      <path d="M 222.890168 314.198125 
L 222.890168 22.318125 
" clip-path="url(#pf462ed4d3e)" style="fill: none; stroke: #b0b0b0; stroke-opacity: 0.2; stroke-width: 0.8; stroke-linecap: square"/>
     </g>
     <g id="line2d_6">
      <g>
       <use xlink:href="#mb2761540c9" x="222.890168" y="314.198125" style="stroke: #000000; stroke-width: 0.8"/>
      </g>
     </g>
     <g id="text_3">
      <!-- 06-28 00 -->
      <g transform="translate(200.409699 328.796562) scale(0.1 -0.1)">
       <defs>
        <path id="DejaVuSans-38" d="M 2034 2216 
Q 1584 2216 1326 1975 
Q 1069 1734 1069 1313 
Q 1069 891 1326 650 
Q 1584 409 2034 409 
Q 2484 409 2743 651 
Q 3003 894 3003 1313 
Q 3003 1734 2745 1975 
Q 2488 2216 2034 2216 
z
M 1403 2484 
Q 997 2584 770 2862 
Q 544 3141 544 3541 
Q 544 4100 942 4425 
Q 1341 4750 2034 4750 
Q 2731 4750 3128 4425 
Q 3525 4100 3525 3541 
Q 3525 3141 3298 2862 
Q 3072 2584 2669 2484 
Q 3125 2378 3379 2068 
Q 3634 1759 3634 1313 
Q 3634 634 3220 271 
Q 2806 -91 2034 -91 
Q 1263 -91 848 271 
Q 434 634 434 1313 
Q 434 1759 690 2068 
Q 947 2378 1403 2484 
z
M 1172 3481 
Q 1172 3119 1398 2916 
Q 1625 2713 2034 2713 
Q 2441 2713 2670 2916 
Q 2900 3119 2900 3481 
Q 2900 3844 2670 4047 
Q 2441 4250 2034 4250 
Q 1625 4250 1398 4047 
Q 1172 3844 1172 3481 
z
" transform="scale(0.015625)"/>
       </defs>
       <use xlink:href="#DejaVuSans-30"/>
       <use xlink:href="#DejaVuSans-36" transform="translate(63.623047 0)"/>
       <use xlink:href="#DejaVuSans-2d" transform="translate(127.246094 0)"/>
       <use xlink:href="#DejaVuSans-32" transform="translate(163.330078 0)"/>
       <use xlink:href="#DejaVuSans-38" transform="translate(226.953125 0)"/>
       <use xlink:href="#DejaVuSans-20" transform="translate(290.576172 0)"/>
       <use xlink:href="#DejaVuSans-30" transform="translate(322.363281 0)"/>
       <use xlink:href="#DejaVuSans-30" transform="translate(385.986328 0)"/>
      </g>
     </g>
    </g>
    <g id="xtick_4">
     <g id="line2d_7">
      <path d="M 299.174197 314.198125 
L 299.174197 22.318125 
" clip-path="url(#pf462ed4d3e)" style="fill: none; stroke: #b0b0b0; stroke-opacity: 0.2; stroke-width: 0.8; stroke-linecap: square"/>
     </g>
     <g id="line2d_8">
      <g>
       <use xlink:href="#mb2761540c9" x="299.174197" y="314.198125" style="stroke: #000000; stroke-width: 0.8"/>
      </g>
     </g>
     <g id="text_4">
      <!-- 06-28 12 -->
      <g transform="translate(276.693728 328.796562) scale(0.1 -0.1)">
       <use xlink:href="#DejaVuSans-30"/>
       <use xlink:href="#DejaVuSans-36" transform="translate(63.623047 0)"/>
       <use xlink:href="#DejaVuSans-2d" transform="translate(127.246094 0)"/>
       <use xlink:href="#DejaVuSans-32" transform="translate(163.330078 0)"/>
       <use xlink:href="#DejaVuSans-38" transform="translate(226.953125 0)"/>
       <use xlink:href="#DejaVuSans-20" transform="translate(290.576172 0)"/>
       <use xlink:href="#DejaVuSans-31" transform="translate(322.363281 0)"/>
       <use xlink:href="#DejaVuSans-32" transform="translate(385.986328 0)"/>
      </g>
     </g>
    </g>
    <g id="xtick_5">
     <g id="line2d_9">
      <path d="M 375.458225 314.198125 
L 375.458225 22.318125 
" clip-path="url(#pf462ed4d3e)" style="fill: none; stroke: #b0b0b0; stroke-opacity: 0.2; stroke-width: 0.8; stroke-linecap: square"/>
     </g>
     <g id="line2d_10">
      <g>
       <use xlink:href="#mb2761540c9" x="375.458225" y="314.198125" style="stroke: #000000; stroke-width: 0.8"/>
      </g>
     </g>
     <g id="text_5">
      <!-- 06-29 00 -->
      <g transform="translate(352.977756 328.796562) scale(0.1 -0.1)">
       <defs>
        <path id="DejaVuSans-39" d="M 703 97 
L 703 672 
Q 941 559 1184 500 
Q 1428 441 1663 441 
Q 2288 441 2617 861 
Q 2947 1281 2994 2138 
Q 2813 1869 2534 1725 
Q 2256 1581 1919 1581 
Q 1219 1581 811 2004 
Q 403 2428 403 3163 
Q 403 3881 828 4315 
Q 1253 4750 1959 4750 
Q 2769 4750 3195 4129 
Q 3622 3509 3622 2328 
Q 3622 1225 3098 567 
Q 2575 -91 1691 -91 
Q 1453 -91 1209 -44 
Q 966 3 703 97 
z
M 1959 2075 
Q 2384 2075 2632 2365 
Q 2881 2656 2881 3163 
Q 2881 3666 2632 3958 
Q 2384 4250 1959 4250 
Q 1534 4250 1286 3958 
Q 1038 3666 1038 3163 
Q 1038 2656 1286 2365 
Q 1534 2075 1959 2075 
z
" transform="scale(0.015625)"/>
       </defs>
       <use xlink:href="#DejaVuSans-30"/>
       <use xlink:href="#DejaVuSans-36" transform="translate(63.623047 0)"/>
       <use xlink:href="#DejaVuSans-2d" transform="translate(127.246094 0)"/>
       <use xlink:href="#DejaVuSans-32" transform="translate(163.330078 0)"/>
       <use xlink:href="#DejaVuSans-39" transform="translate(226.953125 0)"/>
       <use xlink:href="#DejaVuSans-20" transform="translate(290.576172 0)"/>
       <use xlink:href="#DejaVuSans-30" transform="translate(322.363281 0)"/>
       <use xlink:href="#DejaVuSans-30" transform="translate(385.986328 0)"/>
      </g>
     </g>
    </g>
    <g id="xtick_6">
     <g id="line2d_11">
      <path d="M 451.742254 314.198125 
L 451.742254 22.318125 
" clip-path="url(#pf462ed4d3e)" style="fill: none; stroke: #b0b0b0; stroke-opacity: 0.2; stroke-width: 0.8; stroke-linecap: square"/>
     </g>
     <g id="line2d_12">
      <g>
       <use xlink:href="#mb2761540c9" x="451.742254" y="314.198125" style="stroke: #000000; stroke-width: 0.8"/>
      </g>
     </g>
     <g id="text_6">
      <!-- 06-29 12 -->
      <g transform="translate(429.261785 328.796562) scale(0.1 -0.1)">
       <use xlink:href="#DejaVuSans-30"/>
       <use xlink:href="#DejaVuSans-36" transform="translate(63.623047 0)"/>
       <use xlink:href="#DejaVuSans-2d" transform="translate(127.246094 0)"/>
       <use xlink:href="#DejaVuSans-32" transform="translate(163.330078 0)"/>
       <use xlink:href="#DejaVuSans-39" transform="translate(226.953125 0)"/>
       <use xlink:href="#DejaVuSans-20" transform="translate(290.576172 0)"/>
       <use xlink:href="#DejaVuSans-31" transform="translate(322.363281 0)"/>
       <use xlink:href="#DejaVuSans-32" transform="translate(385.986328 0)"/>
      </g>
     </g>
    </g>
    <g id="xtick_7">
     <g id="line2d_13">
      <path d="M 528.026282 314.198125 
L 528.026282 22.318125 
" clip-path="url(#pf462ed4d3e)" style="fill: none; stroke: #b0b0b0; stroke-opacity: 0.2; stroke-width: 0.8; stroke-linecap: square"/>
     </g>
     <g id="line2d_14">
      <g>
       <use xlink:href="#mb2761540c9" x="528.026282" y="314.198125" style="stroke: #000000; stroke-width: 0.8"/>
      </g>
     </g>
     <g id="text_7">
      <!-- 06-30 00 -->
      <g transform="translate(505.545813 328.796562) scale(0.1 -0.1)">
       <defs>
        <path id="DejaVuSans-33" d="M 2597 2516 
Q 3050 2419 3304 2112 
Q 3559 1806 3559 1356 
Q 3559 666 3084 287 
Q 2609 -91 1734 -91 
Q 1441 -91 1130 -33 
Q 819 25 488 141 
L 488 750 
Q 750 597 1062 519 
Q 1375 441 1716 441 
Q 2309 441 2620 675 
Q 2931 909 2931 1356 
Q 2931 1769 2642 2001 
Q 2353 2234 1838 2234 
L 1294 2234 
L 1294 2753 
L 1863 2753 
Q 2328 2753 2575 2939 
Q 2822 3125 2822 3475 
Q 2822 3834 2567 4026 
Q 2313 4219 1838 4219 
Q 1578 4219 1281 4162 
Q 984 4106 628 3988 
L 628 4550 
Q 988 4650 1302 4700 
Q 1616 4750 1894 4750 
Q 2613 4750 3031 4423 
Q 3450 4097 3450 3541 
Q 3450 3153 3228 2886 
Q 3006 2619 2597 2516 
z
" transform="scale(0.015625)"/>
       </defs>
       <use xlink:href="#DejaVuSans-30"/>
       <use xlink:href="#DejaVuSans-36" transform="translate(63.623047 0)"/>
       <use xlink:href="#DejaVuSans-2d" transform="translate(127.246094 0)"/>
       <use xlink:href="#DejaVuSans-33" transform="translate(163.330078 0)"/>
       <use xlink:href="#DejaVuSans-30" transform="translate(226.953125 0)"/>
       <use xlink:href="#DejaVuSans-20" transform="translate(290.576172 0)"/>
       <use xlink:href="#DejaVuSans-30" transform="translate(322.363281 0)"/>
       <use xlink:href="#DejaVuSans-30" transform="translate(385.986328 0)"/>
      </g>
     </g>
    </g>
    <g id="xtick_8">
     <g id="line2d_15">
      <path d="M 604.310311 314.198125 
L 604.310311 22.318125 
" clip-path="url(#pf462ed4d3e)" style="fill: none; stroke: #b0b0b0; stroke-opacity: 0.2; stroke-width: 0.8; stroke-linecap: square"/>
     </g>
     <g id="line2d_16">
      <g>
       <use xlink:href="#mb2761540c9" x="604.310311" y="314.198125" style="stroke: #000000; stroke-width: 0.8"/>
      </g>
     </g>
     <g id="text_8">
      <!-- 06-30 12 -->
      <g transform="translate(581.829842 328.796562) scale(0.1 -0.1)">
       <use xlink:href="#DejaVuSans-30"/>
       <use xlink:href="#DejaVuSans-36" transform="translate(63.623047 0)"/>
       <use xlink:href="#DejaVuSans-2d" transform="translate(127.246094 0)"/>
       <use xlink:href="#DejaVuSans-33" transform="translate(163.330078 0)"/>
       <use xlink:href="#DejaVuSans-30" transform="translate(226.953125 0)"/>
       <use xlink:href="#DejaVuSans-20" transform="translate(290.576172 0)"/>
       <use xlink:href="#DejaVuSans-31" transform="translate(322.363281 0)"/>
       <use xlink:href="#DejaVuSans-32" transform="translate(385.986328 0)"/>
      </g>
     </g>
    </g>
    <g id="xtick_9">
     <g id="line2d_17">
      <path d="M 680.594339 314.198125 
L 680.594339 22.318125 
" clip-path="url(#pf462ed4d3e)" style="fill: none; stroke: #b0b0b0; stroke-opacity: 0.2; stroke-width: 0.8; stroke-linecap: square"/>
     </g>
     <g id="line2d_18">
      <g>
       <use xlink:href="#mb2761540c9" x="680.594339" y="314.198125" style="stroke: #000000; stroke-width: 0.8"/>
      </g>
     </g>
     <g id="text_9">
      <!-- 07-01 00 -->
      <g transform="translate(658.113871 328.796562) scale(0.1 -0.1)">
       <use xlink:href="#DejaVuSans-30"/>
       <use xlink:href="#DejaVuSans-37" transform="translate(63.623047 0)"/>
       <use xlink:href="#DejaVuSans-2d" transform="translate(127.246094 0)"/>
       <use xlink:href="#DejaVuSans-30" transform="translate(163.330078 0)"/>
       <use xlink:href="#DejaVuSans-31" transform="translate(226.953125 0)"/>
       <use xlink:href="#DejaVuSans-20" transform="translate(290.576172 0)"/>
       <use xlink:href="#DejaVuSans-30" transform="translate(322.363281 0)"/>
       <use xlink:href="#DejaVuSans-30" transform="translate(385.986328 0)"/>
      </g>
     </g>
    </g>
    <g id="text_10">
     <!-- Fecha y hora -->
     <g transform="translate(335.367441 342.474687) scale(0.1 -0.1)">
      <defs>
       <path id="DejaVuSans-46" d="M 628 4666 
L 3309 4666 
L 3309 4134 
L 1259 4134 
L 1259 2759 
L 3109 2759 
L 3109 2228 
L 1259 2228 
L 1259 0 
L 628 0 
L 628 4666 
z
" transform="scale(0.015625)"/>
       <path id="DejaVuSans-65" d="M 3597 1894 
L 3597 1613 
L 953 1613 
Q 991 1019 1311 708 
Q 1631 397 2203 397 
Q 2534 397 2845 478 
Q 3156 559 3463 722 
L 3463 178 
Q 3153 47 2828 -22 
Q 2503 -91 2169 -91 
Q 1331 -91 842 396 
Q 353 884 353 1716 
Q 353 2575 817 3079 
Q 1281 3584 2069 3584 
Q 2775 3584 3186 3129 
Q 3597 2675 3597 1894 
z
M 3022 2063 
Q 3016 2534 2758 2815 
Q 2500 3097 2075 3097 
Q 1594 3097 1305 2825 
Q 1016 2553 972 2059 
L 3022 2063 
z
" transform="scale(0.015625)"/>
       <path id="DejaVuSans-63" d="M 3122 3366 
L 3122 2828 
Q 2878 2963 2633 3030 
Q 2388 3097 2138 3097 
Q 1578 3097 1268 2742 
Q 959 2388 959 1747 
Q 959 1106 1268 751 
Q 1578 397 2138 397 
Q 2388 397 2633 464 
Q 2878 531 3122 666 
L 3122 134 
Q 2881 22 2623 -34 
Q 2366 -91 2075 -91 
Q 1284 -91 818 406 
Q 353 903 353 1747 
Q 353 2603 823 3093 
Q 1294 3584 2113 3584 
Q 2378 3584 2631 3529 
Q 2884 3475 3122 3366 
z
" transform="scale(0.015625)"/>
       <path id="DejaVuSans-68" d="M 3513 2113 
L 3513 0 
L 2938 0 
L 2938 2094 
Q 2938 2591 2744 2837 
Q 2550 3084 2163 3084 
Q 1697 3084 1428 2787 
Q 1159 2491 1159 1978 
L 1159 0 
L 581 0 
L 581 4863 
L 1159 4863 
L 1159 2956 
Q 1366 3272 1645 3428 
Q 1925 3584 2291 3584 
Q 2894 3584 3203 3211 
Q 3513 2838 3513 2113 
z
" transform="scale(0.015625)"/>
       <path id="DejaVuSans-61" d="M 2194 1759 
Q 1497 1759 1228 1600 
Q 959 1441 959 1056 
Q 959 750 1161 570 
Q 1363 391 1709 391 
Q 2188 391 2477 730 
Q 2766 1069 2766 1631 
L 2766 1759 
L 2194 1759 
z
M 3341 1997 
L 3341 0 
L 2766 0 
L 2766 531 
Q 2569 213 2275 61 
Q 1981 -91 1556 -91 
Q 1019 -91 701 211 
Q 384 513 384 1019 
Q 384 1609 779 1909 
Q 1175 2209 1959 2209 
L 2766 2209 
L 2766 2266 
Q 2766 2663 2505 2880 
Q 2244 3097 1772 3097 
Q 1472 3097 1187 3025 
Q 903 2953 641 2809 
L 641 3341 
Q 956 3463 1253 3523 
Q 1550 3584 1831 3584 
Q 2591 3584 2966 3190 
Q 3341 2797 3341 1997 
z
" transform="scale(0.015625)"/>
       <path id="DejaVuSans-79" d="M 2059 -325 
Q 1816 -950 1584 -1140 
Q 1353 -1331 966 -1331 
L 506 -1331 
L 506 -850 
L 844 -850 
Q 1081 -850 1212 -737 
Q 1344 -625 1503 -206 
L 1606 56 
L 191 3500 
L 800 3500 
L 1894 763 
L 2988 3500 
L 3597 3500 
L 2059 -325 
z
" transform="scale(0.015625)"/>
       <path id="DejaVuSans-6f" d="M 1959 3097 
Q 1497 3097 1228 2736 
Q 959 2375 959 1747 
Q 959 1119 1226 758 
Q 1494 397 1959 397 
Q 2419 397 2687 759 
Q 2956 1122 2956 1747 
Q 2956 2369 2687 2733 
Q 2419 3097 1959 3097 
z
M 1959 3584 
Q 2709 3584 3137 3096 
Q 3566 2609 3566 1747 
Q 3566 888 3137 398 
Q 2709 -91 1959 -91 
Q 1206 -91 779 398 
Q 353 888 353 1747 
Q 353 2609 779 3096 
Q 1206 3584 1959 3584 
z
" transform="scale(0.015625)"/>
       <path id="DejaVuSans-72" d="M 2631 2963 
Q 2534 3019 2420 3045 
Q 2306 3072 2169 3072 
Q 1681 3072 1420 2755 
Q 1159 2438 1159 1844 
L 1159 0 
L 581 0 
L 581 3500 
L 1159 3500 
L 1159 2956 
Q 1341 3275 1631 3429 
Q 1922 3584 2338 3584 
Q 2397 3584 2469 3576 
Q 2541 3569 2628 3553 
L 2631 2963 
z
" transform="scale(0.015625)"/>
      </defs>
      <use xlink:href="#DejaVuSans-46"/>
      <use xlink:href="#DejaVuSans-65" transform="translate(52.019531 0)"/>
      <use xlink:href="#DejaVuSans-63" transform="translate(113.542969 0)"/>
      <use xlink:href="#DejaVuSans-68" transform="translate(168.523438 0)"/>
      <use xlink:href="#DejaVuSans-61" transform="translate(231.902344 0)"/>
      <use xlink:href="#DejaVuSans-20" transform="translate(293.181641 0)"/>
      <use xlink:href="#DejaVuSans-79" transform="translate(324.96875 0)"/>
      <use xlink:href="#DejaVuSans-20" transform="translate(384.148438 0)"/>
      <use xlink:href="#DejaVuSans-68" transform="translate(415.935547 0)"/>
      <use xlink:href="#DejaVuSans-6f" transform="translate(479.314453 0)"/>
      <use xlink:href="#DejaVuSans-72" transform="translate(540.496094 0)"/>
      <use xlink:href="#DejaVuSans-61" transform="translate(581.609375 0)"/>
     </g>
    </g>
   </g>
   <g id="matplotlib.axis_2">
    <g id="ytick_1">
     <g id="line2d_19">
      <path d="M 40.603125 287.605449 
L 694.420819 287.605449 
" clip-path="url(#pf462ed4d3e)" style="fill: none; stroke: #b0b0b0; stroke-opacity: 0.2; stroke-width: 0.8; stroke-linecap: square"/>
     </g>
     <g id="line2d_20">
      <defs>
       <path id="m32ab26db76" d="M 0 0 
L -3.5 0 
" style="stroke: #000000; stroke-width: 0.8"/>
      </defs>
      <g>
       <use xlink:href="#m32ab26db76" x="40.603125" y="287.605449" style="stroke: #000000; stroke-width: 0.8"/>
      </g>
     </g>
     <g id="text_11">
      <!-- 15 -->
      <g transform="translate(20.878125 291.404667) scale(0.1 -0.1)">
       <defs>
        <path id="DejaVuSans-35" d="M 691 4666 
L 3169 4666 
L 3169 4134 
L 1269 4134 
L 1269 2991 
Q 1406 3038 1543 3061 
Q 1681 3084 1819 3084 
Q 2600 3084 3056 2656 
Q 3513 2228 3513 1497 
Q 3513 744 3044 326 
Q 2575 -91 1722 -91 
Q 1428 -91 1123 -41 
Q 819 9 494 109 
L 494 744 
Q 775 591 1075 516 
Q 1375 441 1709 441 
Q 2250 441 2565 725 
Q 2881 1009 2881 1497 
Q 2881 1984 2565 2268 
Q 2250 2553 1709 2553 
Q 1456 2553 1204 2497 
Q 953 2441 691 2322 
L 691 4666 
z
" transform="scale(0.015625)"/>
       </defs>
       <use xlink:href="#DejaVuSans-31"/>
       <use xlink:href="#DejaVuSans-35" transform="translate(63.623047 0)"/>
      </g>
     </g>
    </g>
    <g id="ytick_2">
     <g id="line2d_21">
      <path d="M 40.603125 242.889329 
L 694.420819 242.889329 
" clip-path="url(#pf462ed4d3e)" style="fill: none; stroke: #b0b0b0; stroke-opacity: 0.2; stroke-width: 0.8; stroke-linecap: square"/>
     </g>
     <g id="line2d_22">
      <g>
       <use xlink:href="#m32ab26db76" x="40.603125" y="242.889329" style="stroke: #000000; stroke-width: 0.8"/>
      </g>
     </g>
     <g id="text_12">
      <!-- 20 -->
      <g transform="translate(20.878125 246.688548) scale(0.1 -0.1)">
       <use xlink:href="#DejaVuSans-32"/>
       <use xlink:href="#DejaVuSans-30" transform="translate(63.623047 0)"/>
      </g>
     </g>
    </g>
    <g id="ytick_3">
     <g id="line2d_23">
      <path d="M 40.603125 198.173209 
L 694.420819 198.173209 
" clip-path="url(#pf462ed4d3e)" style="fill: none; stroke: #b0b0b0; stroke-opacity: 0.2; stroke-width: 0.8; stroke-linecap: square"/>
     </g>
     <g id="line2d_24">
      <g>
       <use xlink:href="#m32ab26db76" x="40.603125" y="198.173209" style="stroke: #000000; stroke-width: 0.8"/>
      </g>
     </g>
     <g id="text_13">
      <!-- 25 -->
      <g transform="translate(20.878125 201.972428) scale(0.1 -0.1)">
       <use xlink:href="#DejaVuSans-32"/>
       <use xlink:href="#DejaVuSans-35" transform="translate(63.623047 0)"/>
      </g>
     </g>
    </g>
    <g id="ytick_4">
     <g id="line2d_25">
      <path d="M 40.603125 153.457089 
L 694.420819 153.457089 
" clip-path="url(#pf462ed4d3e)" style="fill: none; stroke: #b0b0b0; stroke-opacity: 0.2; stroke-width: 0.8; stroke-linecap: square"/>
     </g>
     <g id="line2d_26">
      <g>
       <use xlink:href="#m32ab26db76" x="40.603125" y="153.457089" style="stroke: #000000; stroke-width: 0.8"/>
      </g>
     </g>
     <g id="text_14">
      <!-- 30 -->
      <g transform="translate(20.878125 157.256308) scale(0.1 -0.1)">
       <use xlink:href="#DejaVuSans-33"/>
       <use xlink:href="#DejaVuSans-30" transform="translate(63.623047 0)"/>
      </g>
     </g>
    </g>
    <g id="ytick_5">
     <g id="line2d_27">
      <path d="M 40.603125 108.74097 
L 694.420819 108.74097 
" clip-path="url(#pf462ed4d3e)" style="fill: none; stroke: #b0b0b0; stroke-opacity: 0.2; stroke-width: 0.8; stroke-linecap: square"/>
     </g>
     <g id="line2d_28">
      <g>
       <use xlink:href="#m32ab26db76" x="40.603125" y="108.74097" style="stroke: #000000; stroke-width: 0.8"/>
      </g>
     </g>
     <g id="text_15">
      <!-- 35 -->
      <g transform="translate(20.878125 112.540188) scale(0.1 -0.1)">
       <use xlink:href="#DejaVuSans-33"/>
       <use xlink:href="#DejaVuSans-35" transform="translate(63.623047 0)"/>
      </g>
     </g>
    </g>
    <g id="ytick_6">
     <g id="line2d_29">
      <path d="M 40.603125 64.02485 
L 694.420819 64.02485 
" clip-path="url(#pf462ed4d3e)" style="fill: none; stroke: #b0b0b0; stroke-opacity: 0.2; stroke-width: 0.8; stroke-linecap: square"/>
     </g>
     <g id="line2d_30">
      <g>
       <use xlink:href="#m32ab26db76" x="40.603125" y="64.02485" style="stroke: #000000; stroke-width: 0.8"/>
      </g>
     </g>
     <g id="text_16">
      <!-- 40 -->
      <g transform="translate(20.878125 67.824069) scale(0.1 -0.1)">
       <defs>
        <path id="DejaVuSans-34" d="M 2419 4116 
L 825 1625 
L 2419 1625 
L 2419 4116 
z
M 2253 4666 
L 3047 4666 
L 3047 1625 
L 3713 1625 
L 3713 1100 
L 3047 1100 
L 3047 0 
L 2419 0 
L 2419 1100 
L 313 1100 
L 313 1709 
L 2253 4666 
z
" transform="scale(0.015625)"/>
       </defs>
       <use xlink:href="#DejaVuSans-34"/>
       <use xlink:href="#DejaVuSans-30" transform="translate(63.623047 0)"/>
      </g>
     </g>
    </g>
    <g id="text_17">
     <!-- Temperatura (°C) -->
     <g transform="translate(14.798438 211.509687) rotate(-90) scale(0.1 -0.1)">
      <defs>
       <path id="DejaVuSans-54" d="M -19 4666 
L 3928 4666 
L 3928 4134 
L 2272 4134 
L 2272 0 
L 1638 0 
L 1638 4134 
L -19 4134 
L -19 4666 
z
" transform="scale(0.015625)"/>
       <path id="DejaVuSans-6d" d="M 3328 2828 
Q 3544 3216 3844 3400 
Q 4144 3584 4550 3584 
Q 5097 3584 5394 3201 
Q 5691 2819 5691 2113 
L 5691 0 
L 5113 0 
L 5113 2094 
Q 5113 2597 4934 2840 
Q 4756 3084 4391 3084 
Q 3944 3084 3684 2787 
Q 3425 2491 3425 1978 
L 3425 0 
L 2847 0 
L 2847 2094 
Q 2847 2600 2669 2842 
Q 2491 3084 2119 3084 
Q 1678 3084 1418 2786 
Q 1159 2488 1159 1978 
L 1159 0 
L 581 0 
L 581 3500 
L 1159 3500 
L 1159 2956 
Q 1356 3278 1631 3431 
Q 1906 3584 2284 3584 
Q 2666 3584 2933 3390 
Q 3200 3197 3328 2828 
z
" transform="scale(0.015625)"/>
       <path id="DejaVuSans-70" d="M 1159 525 
L 1159 -1331 
L 581 -1331 
L 581 3500 
L 1159 3500 
L 1159 2969 
Q 1341 3281 1617 3432 
Q 1894 3584 2278 3584 
Q 2916 3584 3314 3078 
Q 3713 2572 3713 1747 
Q 3713 922 3314 415 
Q 2916 -91 2278 -91 
Q 1894 -91 1617 61 
Q 1341 213 1159 525 
z
M 3116 1747 
Q 3116 2381 2855 2742 
Q 2594 3103 2138 3103 
Q 1681 3103 1420 2742 
Q 1159 2381 1159 1747 
Q 1159 1113 1420 752 
Q 1681 391 2138 391 
Q 2594 391 2855 752 
Q 3116 1113 3116 1747 
z
" transform="scale(0.015625)"/>
       <path id="DejaVuSans-74" d="M 1172 4494 
L 1172 3500 
L 2356 3500 
L 2356 3053 
L 1172 3053 
L 1172 1153 
Q 1172 725 1289 603 
Q 1406 481 1766 481 
L 2356 481 
L 2356 0 
L 1766 0 
Q 1100 0 847 248 
Q 594 497 594 1153 
L 594 3053 
L 172 3053 
L 172 3500 
L 594 3500 
L 594 4494 
L 1172 4494 
z
" transform="scale(0.015625)"/>
       <path id="DejaVuSans-75" d="M 544 1381 
L 544 3500 
L 1119 3500 
L 1119 1403 
Q 1119 906 1312 657 
Q 1506 409 1894 409 
Q 2359 409 2629 706 
Q 2900 1003 2900 1516 
L 2900 3500 
L 3475 3500 
L 3475 0 
L 2900 0 
L 2900 538 
Q 2691 219 2414 64 
Q 2138 -91 1772 -91 
Q 1169 -91 856 284 
Q 544 659 544 1381 
z
M 1991 3584 
L 1991 3584 
z
" transform="scale(0.015625)"/>
       <path id="DejaVuSans-28" d="M 1984 4856 
Q 1566 4138 1362 3434 
Q 1159 2731 1159 2009 
Q 1159 1288 1364 580 
Q 1569 -128 1984 -844 
L 1484 -844 
Q 1016 -109 783 600 
Q 550 1309 550 2009 
Q 550 2706 781 3412 
Q 1013 4119 1484 4856 
L 1984 4856 
z
" transform="scale(0.015625)"/>
       <path id="DejaVuSans-b0" d="M 1600 4347 
Q 1350 4347 1178 4173 
Q 1006 4000 1006 3750 
Q 1006 3503 1178 3333 
Q 1350 3163 1600 3163 
Q 1850 3163 2022 3333 
Q 2194 3503 2194 3750 
Q 2194 3997 2020 4172 
Q 1847 4347 1600 4347 
z
M 1600 4750 
Q 1800 4750 1984 4673 
Q 2169 4597 2303 4453 
Q 2447 4313 2519 4134 
Q 2591 3956 2591 3750 
Q 2591 3338 2302 3052 
Q 2013 2766 1594 2766 
Q 1172 2766 890 3047 
Q 609 3328 609 3750 
Q 609 4169 896 4459 
Q 1184 4750 1600 4750 
z
" transform="scale(0.015625)"/>
       <path id="DejaVuSans-43" d="M 4122 4306 
L 4122 3641 
Q 3803 3938 3442 4084 
Q 3081 4231 2675 4231 
Q 1875 4231 1450 3742 
Q 1025 3253 1025 2328 
Q 1025 1406 1450 917 
Q 1875 428 2675 428 
Q 3081 428 3442 575 
Q 3803 722 4122 1019 
L 4122 359 
Q 3791 134 3420 21 
Q 3050 -91 2638 -91 
Q 1578 -91 968 557 
Q 359 1206 359 2328 
Q 359 3453 968 4101 
Q 1578 4750 2638 4750 
Q 3056 4750 3426 4639 
Q 3797 4528 4122 4306 
z
" transform="scale(0.015625)"/>
       <path id="DejaVuSans-29" d="M 513 4856 
L 1013 4856 
Q 1481 4119 1714 3412 
Q 1947 2706 1947 2009 
Q 1947 1309 1714 600 
Q 1481 -109 1013 -844 
L 513 -844 
Q 928 -128 1133 580 
Q 1338 1288 1338 2009 
Q 1338 2731 1133 3434 
Q 928 4138 513 4856 
z
" transform="scale(0.015625)"/>
      </defs>
      <use xlink:href="#DejaVuSans-54"/>
      <use xlink:href="#DejaVuSans-65" transform="translate(44.083984 0)"/>
      <use xlink:href="#DejaVuSans-6d" transform="translate(105.607422 0)"/>
      <use xlink:href="#DejaVuSans-70" transform="translate(203.019531 0)"/>
      <use xlink:href="#DejaVuSans-65" transform="translate(266.496094 0)"/>
      <use xlink:href="#DejaVuSans-72" transform="translate(328.019531 0)"/>
      <use xlink:href="#DejaVuSans-61" transform="translate(369.132812 0)"/>
      <use xlink:href="#DejaVuSans-74" transform="translate(430.412109 0)"/>
      <use xlink:href="#DejaVuSans-75" transform="translate(469.621094 0)"/>
      <use xlink:href="#DejaVuSans-72" transform="translate(533 0)"/>
      <use xlink:href="#DejaVuSans-61" transform="translate(574.113281 0)"/>
      <use xlink:href="#DejaVuSans-20" transform="translate(635.392578 0)"/>
      <use xlink:href="#DejaVuSans-28" transform="translate(667.179688 0)"/>
      <use xlink:href="#DejaVuSans-b0" transform="translate(706.193359 0)"/>
      <use xlink:href="#DejaVuSans-43" transform="translate(756.193359 0)"/>
      <use xlink:href="#DejaVuSans-29" transform="translate(826.017578 0)"/>
     </g>
    </g>
   </g>
   <g id="line2d_31">
    <path d="M 70.322111 246.466618 
L 73.500612 250.312205 
L 76.679113 258.539971 
L 79.857615 268.914111 
L 83.036116 273.832884 
L 86.214617 277.320741 
L 89.393118 282.86554 
L 92.571619 287.068855 
L 95.750121 289.215229 
L 98.928622 292.881951 
L 102.107123 294.581163 
L 108.464125 297.26413 
L 111.642627 298.069021 
L 114.821128 297.442995 
L 117.999629 290.735577 
L 121.17813 268.288085 
L 124.356631 221.693888 
L 127.535133 188.156798 
L 130.713634 157.660405 
L 133.892135 156.855514 
L 137.070636 142.099195 
L 140.249137 128.237198 
L 143.427638 116.34271 
L 146.60614 110.619047 
L 149.784641 102.570145 
L 152.963142 109.456428 
L 156.141643 96.220456 
L 159.320144 96.578185 
L 162.498646 87.008935 
L 165.677147 68.585894 
L 168.855648 72.252616 
L 172.034149 48.821369 
L 175.21265 54.992194 
L 178.391152 56.512542 
L 181.569653 67.870436 
L 184.748154 65.366333 
L 187.926655 60.000399 
L 191.105156 82.984485 
L 194.283657 109.098699 
L 197.462159 120.814322 
L 200.64066 123.855018 
L 203.819161 139.595092 
L 206.997662 165.888171 
L 210.176163 188.872256 
L 213.354665 209.441671 
L 216.533166 221.157295 
L 219.711667 234.572131 
L 222.890168 239.133175 
L 226.068669 244.499109 
L 229.247171 245.840593 
L 232.425672 252.816307 
L 235.604173 256.214733 
L 238.782674 256.393597 
L 241.961175 264.442499 
L 245.139676 264.710795 
L 248.318178 268.914111 
L 251.496679 273.475155 
L 254.67518 272.133671 
L 257.853681 277.320741 
L 261.032182 279.645979 
L 264.210684 260.596912 
L 267.389185 274.10118 
L 270.567686 273.29629 
L 273.746187 251.832553 
L 276.924688 208.279052 
L 280.10319 180.465626 
L 283.281691 144.603298 
L 286.460192 123.050128 
L 289.638693 121.52978 
L 292.817194 117.95249 
L 295.995695 98.187965 
L 299.174197 101.407526 
L 302.352698 90.854522 
L 305.531199 70.553403 
L 308.7097 65.545198 
L 311.888201 70.732268 
L 315.066703 64.740308 
L 318.245204 57.317432 
L 321.423705 62.862231 
L 324.602206 42.113951 
L 327.780707 51.146607 
L 330.959209 53.292981 
L 334.13771 52.130362 
L 337.316211 45.24408 
L 340.494712 53.829575 
L 343.673213 51.772633 
L 346.851715 82.80562 
L 350.030216 96.578185 
L 353.208717 112.586556 
L 356.387218 136.107235 
L 362.74422 169.554892 
L 365.922722 180.64449 
L 369.101223 187.709637 
L 372.279724 199.782989 
L 375.458225 208.815646 
L 378.636726 218.206031 
L 381.815228 229.74279 
L 384.993729 235.287588 
L 388.17223 234.393266 
L 391.350731 244.14138 
L 394.529232 234.750995 
L 397.707734 231.263138 
L 400.886235 243.604787 
L 404.064736 245.303999 
L 407.243237 251.832553 
L 410.421738 250.669934 
L 413.600239 253.531765 
L 416.778741 257.735081 
L 419.957242 260.239183 
L 423.135743 255.052113 
L 426.314244 234.124969 
L 429.492745 187.351908 
L 432.671247 155.692895 
L 435.849748 133.066539 
L 439.028249 126.180256 
L 442.20675 118.846813 
L 445.385251 103.911629 
L 448.563753 103.375035 
L 451.742254 86.830071 
L 454.920755 75.740473 
L 458.099256 69.390784 
L 461.277757 52.84582 
L 464.456258 51.504336 
L 467.63476 57.317432 
L 470.813261 47.301021 
L 473.991762 47.65875 
L 477.170263 65.724062 
L 480.348764 61.341883 
L 483.527266 47.301021 
L 486.705767 47.122157 
L 489.884268 45.959538 
L 493.062769 45.422944 
L 496.24127 64.382579 
L 499.419772 82.626756 
L 502.598273 87.456097 
L 505.776774 98.724559 
L 508.955275 127.879469 
L 512.133776 161.237694 
L 515.312277 181.985974 
L 518.490779 176.083446 
L 521.66928 180.286761 
L 524.847781 197.100022 
L 528.026282 192.717842 
L 531.204783 143.261814 
L 534.383285 147.465129 
L 537.561786 150.505825 
L 540.740287 167.05079 
L 543.918788 156.497786 
L 547.097289 163.384068 
L 550.275791 168.392273 
L 556.632793 169.107731 
L 559.811294 173.579343 
L 562.989795 179.124142 
L 566.168297 182.164838 
L 569.346798 192.002385 
L 572.525299 203.449711 
L 575.7038 214.18158 
L 578.882301 201.213905 
L 582.060802 170.896376 
L 585.239304 144.424433 
L 588.417805 125.017637 
L 591.596306 112.586556 
L 594.774807 97.383075 
L 597.953308 106.594596 
L 601.13181 95.683863 
L 604.310311 85.488587 
L 607.488812 87.813826 
L 610.667313 77.260821 
L 613.845814 57.496296 
L 617.024316 57.854025 
L 620.202817 37.374043 
L 623.381318 46.943292 
L 626.559819 50.610014 
L 629.73832 83.61051 
L 632.916821 82.626756 
L 636.095323 106.77346 
L 639.273824 155.156302 
L 642.452325 174.294801 
L 645.630826 204.433466 
L 648.809327 190.034875 
L 651.987829 190.034875 
L 655.16633 184.490076 
L 658.344831 170.628079 
L 661.523332 154.172547 
L 664.701833 145.765917 
L 664.701833 145.765917 
" clip-path="url(#pf462ed4d3e)" style="fill: none; stroke: #1f77b4; stroke-width: 1.5; stroke-linecap: square"/>
   </g>
   <g id="line2d_32">
    <path d="M 70.322111 245.840593 
L 73.500612 248.52356 
L 76.679113 258.718835 
L 79.857615 270.255594 
L 83.036116 277.141877 
L 86.214617 278.662225 
L 89.393118 285.190778 
L 92.571619 288.8575 
L 95.750121 290.735577 
L 98.928622 293.865705 
L 102.107123 296.280376 
L 105.285624 297.085266 
L 108.464125 298.247885 
L 111.642627 298.784479 
L 114.821128 297.442995 
L 117.999629 289.036364 
L 121.17813 256.214733 
L 124.356631 218.832056 
L 127.535133 200.051286 
L 130.713634 170.896376 
L 133.892135 153.367657 
L 137.070636 137.717015 
L 140.249137 129.220952 
L 143.427638 120.188296 
L 146.60614 115.627252 
L 149.784641 108.114944 
L 152.963142 98.903423 
L 156.141643 93.000895 
L 159.320144 95.236701 
L 162.498646 83.163349 
L 165.677147 79.58606 
L 168.855648 69.033055 
L 172.034149 61.878476 
L 175.21265 60.715857 
L 178.391152 65.902927 
L 181.569653 63.845985 
L 184.748154 54.813329 
L 187.926655 49.805124 
L 191.105156 67.065546 
L 194.283657 67.870436 
L 197.462159 51.951498 
L 200.64066 81.821866 
L 203.819161 115.448388 
L 206.997662 164.546687 
L 210.176163 192.002385 
L 213.354665 213.644987 
L 216.533166 222.856507 
L 219.711667 235.108724 
L 222.890168 239.938065 
L 226.068669 247.360941 
L 229.247171 247.808102 
L 232.425672 250.491069 
L 235.604173 256.572461 
L 238.782674 255.230978 
L 241.961175 265.426253 
L 245.139676 266.052279 
L 248.318178 268.914111 
L 251.496679 275.621528 
L 254.67518 274.280045 
L 257.853681 279.645979 
L 261.032182 282.328946 
L 264.210684 263.548176 
L 267.389185 277.320741 
L 270.567686 273.832884 
L 273.746187 235.913614 
L 280.10319 181.181084 
L 283.281691 161.86372 
L 286.460192 136.107235 
L 289.638693 123.050128 
L 292.817194 119.293974 
L 295.995695 103.106739 
L 299.174197 100.244907 
L 302.352698 85.667452 
L 305.531199 75.740473 
L 308.7097 69.21192 
L 311.888201 66.528953 
L 315.066703 62.057341 
L 318.245204 58.83778 
L 321.423705 57.317432 
L 324.602206 53.829575 
L 327.780707 44.439189 
L 330.959209 49.447395 
L 334.13771 49.805124 
L 337.316211 44.975783 
L 340.494712 49.626259 
L 343.673213 37.195178 
L 346.851715 42.292816 
L 350.030216 44.796918 
L 353.208717 111.602801 
L 356.387218 127.52174 
L 359.565719 154.351412 
L 362.74422 172.774453 
L 365.922722 183.685186 
L 369.101223 189.677146 
L 372.279724 202.555389 
L 375.458225 209.7994 
L 381.815228 232.425757 
L 384.993729 236.450208 
L 388.17223 235.73475 
L 391.350731 245.482864 
L 394.529232 231.710299 
L 397.707734 232.604621 
L 400.886235 241.816142 
L 404.064736 244.320245 
L 407.243237 252.816307 
L 410.421738 252.548011 
L 416.778741 258.8977 
L 419.957242 262.743286 
L 423.135743 257.913945 
L 426.314244 225.181745 
L 429.492745 183.506322 
L 432.671247 158.018134 
L 435.849748 139.237363 
L 439.028249 126.895714 
L 442.20675 115.001226 
L 445.385251 104.090493 
L 448.563753 101.765255 
L 451.742254 92.822031 
L 454.920755 75.114448 
L 458.099256 66.707817 
L 461.277757 53.292981 
L 464.456258 53.829575 
L 467.63476 54.008439 
L 470.813261 51.951498 
L 473.991762 46.764428 
L 477.170263 70.911132 
L 480.348764 64.561443 
L 483.527266 46.943292 
L 486.705767 37.374043 
L 489.884268 39.609849 
L 493.062769 35.764262 
L 496.24127 53.292981 
L 499.419772 57.138567 
L 502.598273 65.902927 
L 505.776774 90.496793 
L 508.955275 129.042088 
L 512.133776 163.920661 
L 515.312277 183.148593 
L 518.490779 179.660736 
L 521.66928 180.465626 
L 524.847781 199.067532 
L 528.026282 195.579674 
L 531.204783 144.603298 
L 534.383285 149.343206 
L 537.561786 151.847309 
L 540.740287 163.205203 
L 543.918788 159.180753 
L 547.097289 165.709306 
L 550.275791 170.896376 
L 553.454292 170.628079 
L 556.632793 170.896376 
L 559.811294 175.278556 
L 562.989795 181.002219 
L 566.168297 181.628245 
L 569.346798 191.376359 
L 575.7038 218.653192 
L 582.060802 173.579343 
L 585.239304 155.156302 
L 588.417805 143.977272 
L 591.596306 123.050128 
L 594.774807 108.293808 
L 597.953308 104.448222 
L 601.13181 103.375035 
L 604.310311 87.99269 
L 607.488812 85.846316 
L 610.667313 76.098202 
L 613.845814 57.854025 
L 617.024316 60.358128 
L 620.202817 52.488091 
L 623.381318 52.130362 
L 626.559819 49.805124 
L 629.73832 86.651206 
L 632.916821 85.667452 
L 636.095323 110.261318 
L 639.273824 155.514031 
L 642.452325 169.107731 
L 645.630826 198.262641 
L 648.809327 186.368153 
L 651.987829 187.351908 
L 655.16633 183.327457 
L 658.344831 171.790698 
L 661.523332 152.29447 
L 664.701833 146.123646 
L 664.701833 146.123646 
" clip-path="url(#pf462ed4d3e)" style="fill: none; stroke: #ff7f0e; stroke-width: 1.5; stroke-linecap: square"/>
   </g>
   <g id="line2d_33">
    <path d="M 70.322111 244.94627 
L 73.500612 249.32845 
L 76.679113 258.539971 
L 79.857615 272.312536 
L 83.036116 277.67847 
L 86.214617 281.345192 
L 89.393118 286.353397 
L 92.571619 288.410339 
L 95.750121 291.898196 
L 98.928622 295.207189 
L 102.107123 297.26413 
L 105.285624 298.069021 
L 108.464125 300.304827 
L 111.642627 300.930852 
L 114.821128 297.442995 
L 117.999629 290.735577 
L 121.17813 259.523725 
L 124.356631 202.913118 
L 127.535133 181.985974 
L 130.713634 147.465129 
L 133.892135 159.180753 
L 137.070636 134.765751 
L 140.249137 125.017637 
L 143.427638 115.806117 
L 149.784641 100.244907 
L 152.963142 99.887178 
L 156.141643 87.99269 
L 159.320144 95.504998 
L 162.498646 84.325968 
L 165.677147 73.951828 
L 168.855648 69.390784 
L 172.034149 62.504502 
L 175.21265 64.203714 
L 178.391152 60.536993 
L 181.569653 66.886682 
L 184.748154 65.008605 
L 187.926655 60.536993 
L 191.105156 69.033055 
L 194.283657 71.089997 
L 197.462159 81.643001 
L 200.64066 118.489084 
L 203.819161 133.245403 
L 206.997662 166.067035 
L 210.176163 192.538978 
L 213.354665 213.287258 
L 216.533166 223.840262 
L 219.711667 233.946105 
L 222.890168 238.775446 
L 226.068669 246.287754 
L 229.247171 248.702424 
L 232.425672 252.816307 
L 235.604173 256.393597 
L 238.782674 260.596912 
L 241.961175 263.905905 
L 245.139676 265.783982 
L 248.318178 269.629568 
L 251.496679 275.979257 
L 254.67518 275.621528 
L 257.853681 279.645979 
L 261.032182 280.987463 
L 264.210684 267.125466 
L 267.389185 274.458909 
L 270.567686 274.280045 
L 273.746187 239.133175 
L 276.924688 191.376359 
L 280.10319 160.075075 
L 286.460192 124.838773 
L 289.638693 119.293974 
L 292.817194 114.106904 
L 295.995695 94.878973 
L 299.174197 98.187965 
L 302.352698 88.350419 
L 305.531199 72.43148 
L 308.7097 66.081791 
L 311.888201 69.569649 
L 315.066703 60.179264 
L 318.245204 59.016644 
L 321.423705 62.325637 
L 324.602206 48.821369 
L 327.780707 49.447395 
L 330.959209 48.642505 
L 334.13771 54.187304 
L 337.316211 49.26853 
L 340.494712 54.992194 
L 343.673213 49.089666 
L 346.851715 52.130362 
L 350.030216 68.764759 
L 353.208717 108.74097 
L 356.387218 134.586887 
L 359.565719 155.335166 
L 362.74422 173.937072 
L 365.922722 182.969728 
L 369.101223 188.335663 
L 372.279724 202.287092 
L 375.458225 208.457917 
L 378.636726 221.157295 
L 381.815228 231.442002 
L 384.993729 236.092479 
L 388.17223 234.92986 
L 391.350731 244.320245 
L 394.529232 233.051783 
L 397.707734 233.409511 
L 400.886235 241.279549 
L 404.064736 245.125135 
L 407.243237 252.548011 
L 410.421738 251.653688 
L 413.600239 255.052113 
L 416.778741 259.076564 
L 419.957242 261.938396 
L 423.135743 257.556216 
L 426.314244 228.759035 
L 429.492745 162.042584 
L 435.849748 119.651703 
L 439.028249 124.838773 
L 442.20675 115.448388 
L 445.385251 102.212416 
L 448.563753 93.358624 
L 451.742254 82.447891 
L 454.920755 66.350088 
L 458.099256 62.683366 
L 461.277757 56.154813 
L 464.456258 51.146607 
L 467.63476 50.788878 
L 470.813261 45.959538 
L 473.991762 50.431149 
L 477.170263 69.21192 
L 480.348764 62.683366 
L 483.527266 44.08146 
L 486.705767 44.260325 
L 489.884268 40.05701 
L 493.062769 35.585398 
L 496.24127 51.146607 
L 499.419772 55.171058 
L 502.598273 73.951828 
L 505.776774 97.56194 
L 508.955275 129.399817 
L 512.133776 164.188958 
L 515.312277 182.164838 
L 518.490779 176.620039 
L 521.66928 181.985974 
L 524.847781 198.262641 
L 528.026282 195.221945 
L 531.204783 144.424433 
L 534.383285 147.465129 
L 537.561786 151.48958 
L 540.740287 166.2459 
L 543.918788 158.375863 
L 547.097289 164.904416 
L 550.275791 170.449215 
L 553.454292 171.075241 
L 556.632793 170.27035 
L 559.811294 175.636285 
L 562.989795 181.628245 
L 566.168297 181.807109 
L 569.346798 192.002385 
L 572.525299 204.791195 
L 575.7038 215.970225 
L 578.882301 196.384564 
L 582.060802 162.042584 
L 585.239304 141.294305 
L 588.417805 127.52174 
L 591.596306 121.52978 
L 597.953308 96.578185 
L 601.13181 92.822031 
L 604.310311 84.683697 
L 607.488812 79.138898 
L 610.667313 69.390784 
L 613.845814 58.480051 
L 617.024316 58.211754 
L 620.202817 47.479886 
L 623.381318 52.309227 
L 626.559819 50.431149 
L 629.73832 84.683697 
L 632.916821 84.951994 
L 636.095323 107.936079 
L 639.273824 154.172547 
L 642.452325 173.579343 
L 645.630826 200.766744 
L 648.809327 185.83156 
L 651.987829 186.189289 
L 655.16633 181.44938 
L 658.344831 170.091486 
L 661.523332 151.310716 
L 664.701833 143.619543 
L 664.701833 143.619543 
" clip-path="url(#pf462ed4d3e)" style="fill: none; stroke: #2ca02c; stroke-width: 1.5; stroke-linecap: square"/>
   </g>
   <g id="line2d_34">
    <path d="M 70.322111 248.702424 
L 73.500612 251.027663 
L 76.679113 259.523725 
L 79.857615 272.759697 
L 83.036116 276.336986 
L 86.214617 277.946767 
L 89.393118 283.849295 
L 92.571619 288.8575 
L 95.750121 292.255925 
L 98.928622 295.386053 
L 102.107123 295.564918 
L 105.285624 296.727537 
L 108.464125 298.069021 
L 111.642627 300.304827 
L 114.821128 298.784479 
L 117.999629 292.255925 
L 121.17813 273.475155 
L 124.356631 232.783486 
L 127.535133 194.238191 
L 130.713634 157.839269 
L 133.892135 155.692895 
L 137.070636 142.635788 
L 140.249137 131.546191 
L 143.427638 121.172051 
L 146.60614 114.822362 
L 149.784641 97.204211 
L 152.963142 95.862727 
L 156.141643 91.480547 
L 159.320144 95.862727 
L 162.498646 78.602305 
L 165.677147 70.106242 
L 168.855648 66.350088 
L 172.034149 65.545198 
L 175.21265 66.350088 
L 178.391152 69.21192 
L 181.569653 69.033055 
L 184.748154 61.341883 
L 187.926655 71.268861 
L 191.105156 103.375035 
L 194.283657 106.77346 
L 197.462159 109.814156 
L 200.64066 119.293974 
L 206.997662 152.831064 
L 210.176163 192.717842 
L 213.354665 215.165335 
L 216.533166 224.197991 
L 219.711667 235.913614 
L 222.890168 241.995006 
L 226.068669 250.312205 
L 229.247171 250.043908 
L 232.425672 255.052113 
L 235.604173 257.735081 
L 238.782674 255.052113 
L 241.961175 266.767737 
L 245.139676 265.247389 
L 248.318178 270.792188 
L 251.496679 274.458909 
L 254.67518 274.10118 
L 257.853681 278.125631 
L 261.032182 280.361437 
L 264.210684 261.759531 
L 267.389185 276.784148 
L 270.567686 275.621528 
L 273.746187 250.043908 
L 276.924688 218.653192 
L 280.10319 167.408519 
L 283.281691 149.164342 
L 286.460192 127.164011 
L 289.638693 117.95249 
L 292.817194 119.651703 
L 295.995695 99.529449 
L 299.174197 98.545694 
L 302.352698 85.130858 
L 305.531199 72.610345 
L 308.7097 62.683366 
L 311.888201 62.862231 
L 315.066703 64.561443 
L 318.245204 59.195509 
L 321.423705 58.03289 
L 324.602206 53.471846 
L 327.780707 43.097706 
L 330.959209 55.171058 
L 334.13771 52.84582 
L 337.316211 51.772633 
L 340.494712 59.016644 
L 343.673213 76.903092 
L 346.851715 81.821866 
L 350.030216 87.1878 
L 353.208717 112.76542 
L 356.387218 136.107235 
L 359.565719 148.180587 
L 362.74422 172.23786 
L 365.922722 182.343703 
L 369.101223 188.872256 
L 372.279724 201.39277 
L 375.458225 209.441671 
L 381.815228 233.051783 
L 384.993729 236.629072 
L 388.17223 234.92986 
L 391.350731 245.303999 
L 394.529232 234.750995 
L 397.707734 232.068028 
L 400.886235 242.621032 
L 404.064736 243.783651 
L 407.243237 252.995172 
L 410.421738 253.531765 
L 413.600239 255.052113 
L 416.778741 260.239183 
L 419.957242 262.743286 
L 423.135743 257.913945 
L 426.314244 237.791691 
L 429.492745 200.051286 
L 432.671247 143.261814 
L 435.849748 132.529945 
L 439.028249 120.635457 
L 442.20675 117.95249 
L 445.385251 100.870933 
L 448.563753 104.090493 
L 454.920755 74.220125 
L 458.099256 65.008605 
L 461.277757 53.471846 
L 464.456258 52.130362 
L 467.63476 52.309227 
L 470.813261 47.122157 
L 473.991762 48.46364 
L 477.170263 65.366333 
L 480.348764 62.325637 
L 483.527266 53.65071 
L 486.705767 45.422944 
L 489.884268 46.317266 
L 493.062769 50.967743 
L 496.24127 75.293312 
L 499.419772 79.58606 
L 502.598273 82.984485 
L 505.776774 96.578185 
L 508.955275 130.204707 
L 512.133776 166.2459 
L 515.312277 184.490076 
L 518.490779 178.766413 
L 521.66928 181.985974 
L 524.847781 198.083777 
L 528.026282 193.075571 
L 531.204783 142.814653 
L 534.383285 148.001723 
L 537.561786 151.310716 
L 540.740287 165.530442 
L 543.918788 156.855514 
L 547.097289 164.367823 
L 550.275791 169.286596 
L 553.454292 169.107731 
L 556.632793 169.286596 
L 559.811294 173.579343 
L 562.989795 180.107897 
L 566.168297 182.164838 
L 569.346798 190.21374 
L 572.525299 205.774949 
L 575.7038 217.490573 
L 578.882301 200.766744 
L 582.060802 179.303007 
L 585.239304 147.1074 
L 591.596306 112.76542 
L 594.774807 103.375035 
L 597.953308 100.066042 
L 601.13181 100.692068 
L 604.310311 89.334174 
L 607.488812 85.130858 
L 610.667313 79.317763 
L 613.845814 54.813329 
L 617.024316 57.317432 
L 620.202817 43.27657 
L 623.381318 47.927047 
L 626.559819 50.967743 
L 629.73832 81.643001 
L 632.916821 82.447891 
L 636.095323 107.399486 
L 639.273824 155.692895 
L 642.452325 171.969563 
L 645.630826 200.766744 
L 648.809327 188.872256 
L 651.987829 188.872256 
L 655.16633 183.685186 
L 658.344831 172.774453 
L 661.523332 153.993683 
L 664.701833 144.782162 
L 664.701833 144.782162 
" clip-path="url(#pf462ed4d3e)" style="fill: none; stroke-dasharray: 5.55,2.4; stroke-dashoffset: 0; stroke: #d62728; stroke-width: 1.5"/>
   </g>
   <g id="line2d_35">
    <path d="M 70.322111 241.279549 
L 73.500612 246.287754 
L 76.679113 255.230978 
L 79.857615 267.930356 
L 83.036116 274.280045 
L 86.214617 275.979257 
L 89.393118 281.524056 
L 92.571619 285.995668 
L 95.750121 287.873745 
L 98.928622 291.898196 
L 102.107123 294.223434 
L 105.285624 295.743782 
L 108.464125 296.101511 
L 111.642627 297.26413 
L 114.821128 294.581163 
L 117.999629 287.516016 
L 121.17813 264.88966 
L 124.356631 236.629072 
L 127.535133 212.124638 
L 130.713634 178.140387 
L 133.892135 166.2459 
L 137.070636 148.985477 
L 140.249137 142.099195 
L 143.427638 131.188462 
L 146.60614 129.042088 
L 152.963142 97.919669 
L 156.141643 94.521244 
L 159.320144 96.846482 
L 162.498646 82.269027 
L 165.677147 82.447891 
L 168.855648 72.610345 
L 172.034149 75.293312 
L 175.21265 74.220125 
L 178.391152 76.277067 
L 181.569653 70.911132 
L 184.748154 68.228165 
L 187.926655 59.016644 
L 191.105156 69.569649 
L 194.283657 70.374539 
L 197.462159 68.585894 
L 200.64066 90.496793 
L 203.819161 126.180256 
L 206.997662 165.08328 
L 210.176163 191.376359 
L 213.354665 210.335994 
L 216.533166 220.17354 
L 219.711667 231.710299 
L 222.890168 237.255098 
L 226.068669 243.33649 
L 229.247171 244.94627 
L 232.425672 248.344695 
L 235.604173 253.531765 
L 238.782674 254.336656 
L 241.961175 264.263634 
L 245.139676 263.279879 
L 248.318178 267.393762 
L 251.496679 272.759697 
L 254.67518 272.759697 
L 257.853681 276.784148 
L 261.032182 280.003708 
L 264.210684 262.743286 
L 267.389185 275.621528 
L 270.567686 273.117426 
L 273.746187 243.783651 
L 276.924688 221.872753 
L 280.10319 197.368319 
L 283.281691 170.449215 
L 286.460192 147.286265 
L 289.638693 132.529945 
L 292.817194 126.537985 
L 295.995695 110.440182 
L 299.174197 98.724559 
L 302.352698 85.667452 
L 305.531199 79.317763 
L 308.7097 72.252616 
L 311.888201 68.40703 
L 315.066703 60.715857 
L 318.245204 66.707817 
L 321.423705 53.471846 
L 324.602206 60.358128 
L 327.780707 45.422944 
L 330.959209 48.642505 
L 334.13771 55.171058 
L 337.316211 54.008439 
L 340.494712 55.171058 
L 343.673213 50.788878 
L 346.851715 55.797084 
L 350.030216 52.488091 
L 353.208717 108.74097 
L 356.387218 129.578681 
L 359.565719 152.29447 
L 362.74422 169.554892 
L 365.922722 181.002219 
L 369.101223 186.368153 
L 372.279724 199.246396 
L 375.458225 206.311543 
L 378.636726 218.206031 
L 381.815228 229.027332 
L 384.993729 233.051783 
L 388.17223 231.084273 
L 391.350731 242.442168 
L 394.529232 229.206196 
L 397.707734 230.54768 
L 400.886235 237.612827 
L 404.064736 241.458413 
L 407.243237 251.474824 
L 410.421738 251.027663 
L 413.600239 254.157791 
L 416.778741 257.735081 
L 419.957242 260.418048 
L 423.135743 257.198487 
L 426.314244 233.588376 
L 429.492745 202.287092 
L 432.671247 174.473666 
L 435.849748 145.318756 
L 439.028249 134.050293 
L 442.20675 121.708644 
L 445.385251 107.399486 
L 448.563753 104.716519 
L 451.742254 89.870767 
L 454.920755 77.260821 
L 458.099256 69.390784 
L 461.277757 64.02485 
L 464.456258 59.016644 
L 467.63476 55.797084 
L 470.813261 46.138402 
L 473.991762 47.122157 
L 477.170263 76.634796 
L 480.348764 65.902927 
L 483.527266 53.114117 
L 486.705767 49.447395 
L 489.884268 39.878145 
L 493.062769 42.113951 
L 496.24127 57.317432 
L 499.419772 57.854025 
L 502.598273 69.927378 
L 505.776774 88.976445 
L 508.955275 126.180256 
L 512.133776 160.701101 
L 515.312277 180.286761 
L 518.490779 175.45742 
L 521.66928 179.660736 
L 524.847781 196.026835 
L 528.026282 193.075571 
L 531.204783 143.08295 
L 534.383285 146.660239 
L 537.561786 150.952987 
L 540.740287 161.416559 
L 543.918788 156.855514 
L 547.097289 163.205203 
L 550.275791 168.928867 
L 553.454292 170.091486 
L 556.632793 169.912621 
L 559.811294 173.937072 
L 562.989795 180.64449 
L 566.168297 179.8396 
L 569.346798 188.693392 
L 572.525299 203.449711 
L 575.7038 216.506818 
L 578.882301 199.42526 
L 582.060802 188.693392 
L 585.239304 169.554892 
L 591.596306 137.448718 
L 594.774807 122.513535 
L 597.953308 109.277563 
L 601.13181 106.415731 
L 604.310311 94.521244 
L 607.488812 87.1878 
L 610.667313 82.626756 
L 613.845814 70.732268 
L 617.024316 66.081791 
L 620.202817 53.829575 
L 623.381318 55.797084 
L 626.559819 51.146607 
L 629.73832 85.667452 
L 632.916821 85.846316 
L 636.095323 108.293808 
L 639.273824 156.050624 
L 642.452325 166.2459 
L 645.630826 193.701597 
L 648.809327 184.490076 
L 651.987829 186.368153 
L 655.16633 180.823355 
L 658.344831 171.43297 
L 661.523332 151.847309 
L 664.701833 145.49762 
L 664.701833 145.49762 
" clip-path="url(#pf462ed4d3e)" style="fill: none; stroke-dasharray: 5.55,2.4; stroke-dashoffset: 0; stroke: #9467bd; stroke-width: 1.5"/>
   </g>
   <g id="line2d_36">
    <path d="M 70.322111 243.604787 
L 73.500612 249.149586 
L 76.679113 257.556216 
L 79.857615 270.434459 
L 83.036116 277.67847 
L 86.214617 279.28825 
L 89.393118 285.190778 
L 92.571619 286.711126 
L 95.750121 290.914441 
L 98.928622 293.597409 
L 102.107123 297.26413 
L 105.285624 297.442995 
L 108.464125 298.605614 
L 111.642627 299.947098 
L 114.821128 296.280376 
L 117.999629 291.361603 
L 121.17813 275.174367 
L 124.356631 214.98647 
L 127.535133 195.043081 
L 130.713634 164.188958 
L 133.892135 163.205203 
L 137.070636 149.343206 
L 140.249137 134.944616 
L 143.427638 124.033883 
L 146.60614 123.050128 
L 149.784641 111.602801 
L 152.963142 106.236867 
L 156.141643 98.903423 
L 159.320144 100.066042 
L 162.498646 89.155309 
L 168.855648 72.789209 
L 172.034149 65.366333 
L 175.21265 70.106242 
L 178.391152 65.545198 
L 181.569653 69.033055 
L 187.926655 63.667121 
L 191.105156 73.951828 
L 194.283657 86.025181 
L 197.462159 112.318259 
L 200.64066 117.95249 
L 203.819161 136.107235 
L 206.997662 167.229654 
L 210.176163 192.538978 
L 213.354665 211.498613 
L 216.533166 222.856507 
L 219.711667 230.54768 
L 222.890168 236.092479 
L 226.068669 242.621032 
L 229.247171 249.686179 
L 232.425672 252.190282 
L 235.604173 254.51552 
L 238.782674 259.255429 
L 241.961175 263.101015 
L 245.139676 264.88966 
L 248.318178 268.466949 
L 251.496679 275.174367 
L 254.67518 275.174367 
L 257.853681 277.67847 
L 261.032182 280.808598 
L 264.210684 270.255594 
L 267.389185 276.158122 
L 270.567686 274.458909 
L 273.746187 254.157791 
L 276.924688 205.953814 
L 280.10319 181.628245 
L 283.281691 161.684855 
L 286.460192 133.603132 
L 289.638693 127.700604 
L 292.817194 122.155806 
L 295.995695 99.708313 
L 299.174197 106.058002 
L 302.352698 93.000895 
L 305.531199 81.464137 
L 308.7097 73.772964 
L 311.888201 71.894887 
L 315.066703 66.528953 
L 318.245204 64.561443 
L 321.423705 61.341883 
L 324.602206 52.84582 
L 327.780707 52.130362 
L 330.959209 53.292981 
L 334.13771 59.374373 
L 337.316211 50.431149 
L 340.494712 49.447395 
L 343.673213 51.504336 
L 346.851715 62.504502 
L 350.030216 89.691903 
L 353.208717 109.456428 
L 356.387218 136.107235 
L 359.565719 155.335166 
L 362.74422 171.969563 
L 365.922722 181.807109 
L 369.101223 187.709637 
L 372.279724 200.051286 
L 375.458225 207.295298 
L 378.636726 220.352404 
L 381.815228 230.54768 
L 384.993729 233.051783 
L 388.17223 235.73475 
L 391.350731 243.157626 
L 394.529232 233.051783 
L 397.707734 231.889163 
L 400.886235 240.653523 
L 404.064736 243.157626 
L 407.243237 253.174036 
L 410.421738 251.653688 
L 413.600239 253.71063 
L 416.778741 259.076564 
L 419.957242 261.580667 
L 423.135743 258.182242 
L 426.314244 241.816142 
L 429.492745 180.286761 
L 432.671247 148.627748 
L 435.849748 134.586887 
L 439.028249 128.684359 
L 442.20675 120.635457 
L 445.385251 107.578351 
L 448.563753 98.903423 
L 451.742254 89.691903 
L 454.920755 74.756719 
L 461.277757 65.366333 
L 464.456258 61.341883 
L 467.63476 56.870271 
L 470.813261 53.471846 
L 473.991762 54.4556 
L 477.170263 74.220125 
L 480.348764 61.878476 
L 483.527266 47.301021 
L 486.705767 51.504336 
L 489.884268 39.878145 
L 493.062769 42.292816 
L 499.419772 64.203714 
L 502.598273 84.504833 
L 505.776774 96.846482 
L 508.955275 128.863224 
L 512.133776 164.188958 
L 515.312277 181.628245 
L 518.490779 174.294801 
L 521.66928 182.343703 
L 524.847781 197.368319 
L 528.026282 197.368319 
L 531.204783 145.765917 
L 534.383285 147.822858 
L 537.561786 151.48958 
L 540.740287 166.424764 
L 543.918788 157.392108 
L 547.097289 163.562932 
L 550.275791 170.091486 
L 553.454292 171.43297 
L 556.632793 171.43297 
L 562.989795 181.985974 
L 566.168297 181.628245 
L 569.346798 190.839765 
L 572.525299 205.596085 
L 575.7038 215.344199 
L 578.882301 202.108228 
L 582.060802 172.774453 
L 585.239304 150.68469 
L 588.417805 136.912125 
L 591.596306 132.887674 
L 594.774807 124.212747 
L 597.953308 100.870933 
L 601.13181 103.106739 
L 604.310311 93.895218 
L 607.488812 87.634961 
L 610.667313 82.80562 
L 613.845814 65.545198 
L 617.024316 58.658916 
L 620.202817 58.480051 
L 623.381318 54.992194 
L 626.559819 55.975948 
L 629.73832 85.130858 
L 632.916821 86.025181 
L 636.095323 107.757215 
L 639.273824 154.977437 
L 642.452325 170.449215 
L 645.630826 204.254601 
L 648.809327 185.205534 
L 651.987829 186.189289 
L 655.16633 180.107897 
L 658.344831 169.554892 
L 661.523332 150.326961 
L 664.701833 143.08295 
L 664.701833 143.08295 
" clip-path="url(#pf462ed4d3e)" style="fill: none; stroke-dasharray: 5.55,2.4; stroke-dashoffset: 0; stroke: #8c564b; stroke-width: 1.5"/>
   </g>
   <g id="patch_3">
    <path d="M 40.603125 314.198125 
L 40.603125 22.318125 
" style="fill: none; stroke: #000000; stroke-width: 0.8; stroke-linejoin: miter; stroke-linecap: square"/>
   </g>
   <g id="patch_4">
    <path d="M 694.420819 314.198125 
L 694.420819 22.318125 
" style="fill: none; stroke: #000000; stroke-width: 0.8; stroke-linejoin: miter; stroke-linecap: square"/>
   </g>
   <g id="patch_5">
    <path d="M 40.603125 314.198125 
L 694.420819 314.198125 
" style="fill: none; stroke: #000000; stroke-width: 0.8; stroke-linejoin: miter; stroke-linecap: square"/>
   </g>
   <g id="patch_6">
    <path d="M 40.603125 22.318125 
L 694.420819 22.318125 
" style="fill: none; stroke: #000000; stroke-width: 0.8; stroke-linejoin: miter; stroke-linecap: square"/>
   </g>
   <g id="text_18">
    <!-- Serie temporal de temperatura - Sensores con y sin OTC -->
    <g transform="translate(197.954785 16.318125) scale(0.12 -0.12)">
     <defs>
      <path id="DejaVuSans-53" d="M 3425 4513 
L 3425 3897 
Q 3066 4069 2747 4153 
Q 2428 4238 2131 4238 
Q 1616 4238 1336 4038 
Q 1056 3838 1056 3469 
Q 1056 3159 1242 3001 
Q 1428 2844 1947 2747 
L 2328 2669 
Q 3034 2534 3370 2195 
Q 3706 1856 3706 1288 
Q 3706 609 3251 259 
Q 2797 -91 1919 -91 
Q 1588 -91 1214 -16 
Q 841 59 441 206 
L 441 856 
Q 825 641 1194 531 
Q 1563 422 1919 422 
Q 2459 422 2753 634 
Q 3047 847 3047 1241 
Q 3047 1584 2836 1778 
Q 2625 1972 2144 2069 
L 1759 2144 
Q 1053 2284 737 2584 
Q 422 2884 422 3419 
Q 422 4038 858 4394 
Q 1294 4750 2059 4750 
Q 2388 4750 2728 4690 
Q 3069 4631 3425 4513 
z
" transform="scale(0.015625)"/>
      <path id="DejaVuSans-69" d="M 603 3500 
L 1178 3500 
L 1178 0 
L 603 0 
L 603 3500 
z
M 603 4863 
L 1178 4863 
L 1178 4134 
L 603 4134 
L 603 4863 
z
" transform="scale(0.015625)"/>
      <path id="DejaVuSans-6c" d="M 603 4863 
L 1178 4863 
L 1178 0 
L 603 0 
L 603 4863 
z
" transform="scale(0.015625)"/>
      <path id="DejaVuSans-64" d="M 2906 2969 
L 2906 4863 
L 3481 4863 
L 3481 0 
L 2906 0 
L 2906 525 
Q 2725 213 2448 61 
Q 2172 -91 1784 -91 
Q 1150 -91 751 415 
Q 353 922 353 1747 
Q 353 2572 751 3078 
Q 1150 3584 1784 3584 
Q 2172 3584 2448 3432 
Q 2725 3281 2906 2969 
z
M 947 1747 
Q 947 1113 1208 752 
Q 1469 391 1925 391 
Q 2381 391 2643 752 
Q 2906 1113 2906 1747 
Q 2906 2381 2643 2742 
Q 2381 3103 1925 3103 
Q 1469 3103 1208 2742 
Q 947 2381 947 1747 
z
" transform="scale(0.015625)"/>
      <path id="DejaVuSans-6e" d="M 3513 2113 
L 3513 0 
L 2938 0 
L 2938 2094 
Q 2938 2591 2744 2837 
Q 2550 3084 2163 3084 
Q 1697 3084 1428 2787 
Q 1159 2491 1159 1978 
L 1159 0 
L 581 0 
L 581 3500 
L 1159 3500 
L 1159 2956 
Q 1366 3272 1645 3428 
Q 1925 3584 2291 3584 
Q 2894 3584 3203 3211 
Q 3513 2838 3513 2113 
z
" transform="scale(0.015625)"/>
      <path id="DejaVuSans-73" d="M 2834 3397 
L 2834 2853 
Q 2591 2978 2328 3040 
Q 2066 3103 1784 3103 
Q 1356 3103 1142 2972 
Q 928 2841 928 2578 
Q 928 2378 1081 2264 
Q 1234 2150 1697 2047 
L 1894 2003 
Q 2506 1872 2764 1633 
Q 3022 1394 3022 966 
Q 3022 478 2636 193 
Q 2250 -91 1575 -91 
Q 1294 -91 989 -36 
Q 684 19 347 128 
L 347 722 
Q 666 556 975 473 
Q 1284 391 1588 391 
Q 1994 391 2212 530 
Q 2431 669 2431 922 
Q 2431 1156 2273 1281 
Q 2116 1406 1581 1522 
L 1381 1569 
Q 847 1681 609 1914 
Q 372 2147 372 2553 
Q 372 3047 722 3315 
Q 1072 3584 1716 3584 
Q 2034 3584 2315 3537 
Q 2597 3491 2834 3397 
z
" transform="scale(0.015625)"/>
      <path id="DejaVuSans-4f" d="M 2522 4238 
Q 1834 4238 1429 3725 
Q 1025 3213 1025 2328 
Q 1025 1447 1429 934 
Q 1834 422 2522 422 
Q 3209 422 3611 934 
Q 4013 1447 4013 2328 
Q 4013 3213 3611 3725 
Q 3209 4238 2522 4238 
z
M 2522 4750 
Q 3503 4750 4090 4092 
Q 4678 3434 4678 2328 
Q 4678 1225 4090 567 
Q 3503 -91 2522 -91 
Q 1538 -91 948 565 
Q 359 1222 359 2328 
Q 359 3434 948 4092 
Q 1538 4750 2522 4750 
z
" transform="scale(0.015625)"/>
     </defs>
     <use xlink:href="#DejaVuSans-53"/>
     <use xlink:href="#DejaVuSans-65" transform="translate(63.476562 0)"/>
     <use xlink:href="#DejaVuSans-72" transform="translate(125 0)"/>
     <use xlink:href="#DejaVuSans-69" transform="translate(166.113281 0)"/>
     <use xlink:href="#DejaVuSans-65" transform="translate(193.896484 0)"/>
     <use xlink:href="#DejaVuSans-20" transform="translate(255.419922 0)"/>
     <use xlink:href="#DejaVuSans-74" transform="translate(287.207031 0)"/>
     <use xlink:href="#DejaVuSans-65" transform="translate(326.416016 0)"/>
     <use xlink:href="#DejaVuSans-6d" transform="translate(387.939453 0)"/>
     <use xlink:href="#DejaVuSans-70" transform="translate(485.351562 0)"/>
     <use xlink:href="#DejaVuSans-6f" transform="translate(548.828125 0)"/>
     <use xlink:href="#DejaVuSans-72" transform="translate(610.009766 0)"/>
     <use xlink:href="#DejaVuSans-61" transform="translate(651.123047 0)"/>
     <use xlink:href="#DejaVuSans-6c" transform="translate(712.402344 0)"/>
     <use xlink:href="#DejaVuSans-20" transform="translate(740.185547 0)"/>
     <use xlink:href="#DejaVuSans-64" transform="translate(771.972656 0)"/>
     <use xlink:href="#DejaVuSans-65" transform="translate(835.449219 0)"/>
     <use xlink:href="#DejaVuSans-20" transform="translate(896.972656 0)"/>
     <use xlink:href="#DejaVuSans-74" transform="translate(928.759766 0)"/>
     <use xlink:href="#DejaVuSans-65" transform="translate(967.96875 0)"/>
     <use xlink:href="#DejaVuSans-6d" transform="translate(1029.492188 0)"/>
     <use xlink:href="#DejaVuSans-70" transform="translate(1126.904297 0)"/>
     <use xlink:href="#DejaVuSans-65" transform="translate(1190.380859 0)"/>
     <use xlink:href="#DejaVuSans-72" transform="translate(1251.904297 0)"/>
     <use xlink:href="#DejaVuSans-61" transform="translate(1293.017578 0)"/>
     <use xlink:href="#DejaVuSans-74" transform="translate(1354.296875 0)"/>
     <use xlink:href="#DejaVuSans-75" transform="translate(1393.505859 0)"/>
     <use xlink:href="#DejaVuSans-72" transform="translate(1456.884766 0)"/>
     <use xlink:href="#DejaVuSans-61" transform="translate(1497.998047 0)"/>
     <use xlink:href="#DejaVuSans-20" transform="translate(1559.277344 0)"/>
     <use xlink:href="#DejaVuSans-2d" transform="translate(1591.064453 0)"/>
     <use xlink:href="#DejaVuSans-20" transform="translate(1627.148438 0)"/>
     <use xlink:href="#DejaVuSans-53" transform="translate(1658.935547 0)"/>
     <use xlink:href="#DejaVuSans-65" transform="translate(1722.412109 0)"/>
     <use xlink:href="#DejaVuSans-6e" transform="translate(1783.935547 0)"/>
     <use xlink:href="#DejaVuSans-73" transform="translate(1847.314453 0)"/>
     <use xlink:href="#DejaVuSans-6f" transform="translate(1899.414062 0)"/>
     <use xlink:href="#DejaVuSans-72" transform="translate(1960.595703 0)"/>
     <use xlink:href="#DejaVuSans-65" transform="translate(1999.458984 0)"/>
     <use xlink:href="#DejaVuSans-73" transform="translate(2060.982422 0)"/>
     <use xlink:href="#DejaVuSans-20" transform="translate(2113.082031 0)"/>
     <use xlink:href="#DejaVuSans-63" transform="translate(2144.869141 0)"/>
     <use xlink:href="#DejaVuSans-6f" transform="translate(2199.849609 0)"/>
     <use xlink:href="#DejaVuSans-6e" transform="translate(2261.03125 0)"/>
     <use xlink:href="#DejaVuSans-20" transform="translate(2324.410156 0)"/>
     <use xlink:href="#DejaVuSans-79" transform="translate(2356.197266 0)"/>
     <use xlink:href="#DejaVuSans-20" transform="translate(2415.376953 0)"/>
     <use xlink:href="#DejaVuSans-73" transform="translate(2447.164062 0)"/>
     <use xlink:href="#DejaVuSans-69" transform="translate(2499.263672 0)"/>
     <use xlink:href="#DejaVuSans-6e" transform="translate(2527.046875 0)"/>
     <use xlink:href="#DejaVuSans-20" transform="translate(2590.425781 0)"/>
     <use xlink:href="#DejaVuSans-4f" transform="translate(2622.212891 0)"/>
     <use xlink:href="#DejaVuSans-54" transform="translate(2700.923828 0)"/>
     <use xlink:href="#DejaVuSans-43" transform="translate(2756.132812 0)"/>
    </g>
   </g>
   <g id="legend_1">
    <g id="patch_7">
     <path d="M 47.603125 133.065 
L 107.904688 133.065 
Q 109.904688 133.065 109.904688 131.065 
L 109.904688 29.318125 
Q 109.904688 27.318125 107.904688 27.318125 
L 47.603125 27.318125 
Q 45.603125 27.318125 45.603125 29.318125 
L 45.603125 131.065 
Q 45.603125 133.065 47.603125 133.065 
z
" style="fill: #ffffff; opacity: 0.8; stroke: #cccccc; stroke-linejoin: miter"/>
    </g>
    <g id="text_19">
     <!-- Sensores -->
     <g transform="translate(55.046094 38.916562) scale(0.1 -0.1)">
      <use xlink:href="#DejaVuSans-53"/>
      <use xlink:href="#DejaVuSans-65" transform="translate(63.476562 0)"/>
      <use xlink:href="#DejaVuSans-6e" transform="translate(125 0)"/>
      <use xlink:href="#DejaVuSans-73" transform="translate(188.378906 0)"/>
      <use xlink:href="#DejaVuSans-6f" transform="translate(240.478516 0)"/>
      <use xlink:href="#DejaVuSans-72" transform="translate(301.660156 0)"/>
      <use xlink:href="#DejaVuSans-65" transform="translate(340.523438 0)"/>
      <use xlink:href="#DejaVuSans-73" transform="translate(402.046875 0)"/>
     </g>
    </g>
    <g id="line2d_37">
     <path d="M 49.603125 50.094688 
L 59.603125 50.094688 
L 69.603125 50.094688 
" style="fill: none; stroke: #1f77b4; stroke-width: 1.5; stroke-linecap: square"/>
    </g>
    <g id="text_20">
     <!-- 2LR2 -->
     <g transform="translate(77.603125 53.594688) scale(0.1 -0.1)">
      <defs>
       <path id="DejaVuSans-4c" d="M 628 4666 
L 1259 4666 
L 1259 531 
L 3531 531 
L 3531 0 
L 628 0 
L 628 4666 
z
" transform="scale(0.015625)"/>
       <path id="DejaVuSans-52" d="M 2841 2188 
Q 3044 2119 3236 1894 
Q 3428 1669 3622 1275 
L 4263 0 
L 3584 0 
L 2988 1197 
Q 2756 1666 2539 1819 
Q 2322 1972 1947 1972 
L 1259 1972 
L 1259 0 
L 628 0 
L 628 4666 
L 2053 4666 
Q 2853 4666 3247 4331 
Q 3641 3997 3641 3322 
Q 3641 2881 3436 2590 
Q 3231 2300 2841 2188 
z
M 1259 4147 
L 1259 2491 
L 2053 2491 
Q 2509 2491 2742 2702 
Q 2975 2913 2975 3322 
Q 2975 3731 2742 3939 
Q 2509 4147 2053 4147 
L 1259 4147 
z
" transform="scale(0.015625)"/>
      </defs>
      <use xlink:href="#DejaVuSans-32"/>
      <use xlink:href="#DejaVuSans-4c" transform="translate(63.623047 0)"/>
      <use xlink:href="#DejaVuSans-52" transform="translate(119.335938 0)"/>
      <use xlink:href="#DejaVuSans-32" transform="translate(188.818359 0)"/>
     </g>
    </g>
    <g id="line2d_38">
     <path d="M 49.603125 64.772813 
L 59.603125 64.772813 
L 69.603125 64.772813 
" style="fill: none; stroke: #ff7f0e; stroke-width: 1.5; stroke-linecap: square"/>
    </g>
    <g id="text_21">
     <!-- 2TR2 -->
     <g transform="translate(77.603125 68.272813) scale(0.1 -0.1)">
      <use xlink:href="#DejaVuSans-32"/>
      <use xlink:href="#DejaVuSans-54" transform="translate(63.623047 0)"/>
      <use xlink:href="#DejaVuSans-52" transform="translate(124.707031 0)"/>
      <use xlink:href="#DejaVuSans-32" transform="translate(194.189453 0)"/>
     </g>
    </g>
    <g id="line2d_39">
     <path d="M 49.603125 79.450938 
L 59.603125 79.450938 
L 69.603125 79.450938 
" style="fill: none; stroke: #2ca02c; stroke-width: 1.5; stroke-linecap: square"/>
    </g>
    <g id="text_22">
     <!-- 2MR2 -->
     <g transform="translate(77.603125 82.950938) scale(0.1 -0.1)">
      <defs>
       <path id="DejaVuSans-4d" d="M 628 4666 
L 1569 4666 
L 2759 1491 
L 3956 4666 
L 4897 4666 
L 4897 0 
L 4281 0 
L 4281 4097 
L 3078 897 
L 2444 897 
L 1241 4097 
L 1241 0 
L 628 0 
L 628 4666 
z
" transform="scale(0.015625)"/>
      </defs>
      <use xlink:href="#DejaVuSans-32"/>
      <use xlink:href="#DejaVuSans-4d" transform="translate(63.623047 0)"/>
      <use xlink:href="#DejaVuSans-52" transform="translate(149.902344 0)"/>
      <use xlink:href="#DejaVuSans-32" transform="translate(219.384766 0)"/>
     </g>
    </g>
    <g id="line2d_40">
     <path d="M 49.603125 94.129063 
L 59.603125 94.129063 
L 69.603125 94.129063 
" style="fill: none; stroke-dasharray: 5.55,2.4; stroke-dashoffset: 0; stroke: #d62728; stroke-width: 1.5"/>
    </g>
    <g id="text_23">
     <!-- 1LR2 -->
     <g transform="translate(77.603125 97.629063) scale(0.1 -0.1)">
      <use xlink:href="#DejaVuSans-31"/>
      <use xlink:href="#DejaVuSans-4c" transform="translate(63.623047 0)"/>
      <use xlink:href="#DejaVuSans-52" transform="translate(119.335938 0)"/>
      <use xlink:href="#DejaVuSans-32" transform="translate(188.818359 0)"/>
     </g>
    </g>
    <g id="line2d_41">
     <path d="M 49.603125 108.807188 
L 59.603125 108.807188 
L 69.603125 108.807188 
" style="fill: none; stroke-dasharray: 5.55,2.4; stroke-dashoffset: 0; stroke: #9467bd; stroke-width: 1.5"/>
    </g>
    <g id="text_24">
     <!-- 1TR2 -->
     <g transform="translate(77.603125 112.307188) scale(0.1 -0.1)">
      <use xlink:href="#DejaVuSans-31"/>
      <use xlink:href="#DejaVuSans-54" transform="translate(63.623047 0)"/>
      <use xlink:href="#DejaVuSans-52" transform="translate(124.707031 0)"/>
      <use xlink:href="#DejaVuSans-32" transform="translate(194.189453 0)"/>
     </g>
    </g>
    <g id="line2d_42">
     <path d="M 49.603125 123.485313 
L 59.603125 123.485313 
L 69.603125 123.485313 
" style="fill: none; stroke-dasharray: 5.55,2.4; stroke-dashoffset: 0; stroke: #8c564b; stroke-width: 1.5"/>
    </g>
    <g id="text_25">
     <!-- 1MR2 -->
     <g transform="translate(77.603125 126.985313) scale(0.1 -0.1)">
      <use xlink:href="#DejaVuSans-31"/>
      <use xlink:href="#DejaVuSans-4d" transform="translate(63.623047 0)"/>
      <use xlink:href="#DejaVuSans-52" transform="translate(149.902344 0)"/>
      <use xlink:href="#DejaVuSans-32" transform="translate(219.384766 0)"/>
     </g>
    </g>
   </g>
  </g>
 </g>
 <defs>
  <clipPath id="pf462ed4d3e">
   <rect x="40.603125" y="22.318125" width="653.817694" height="291.88"/>
  </clipPath>
 </defs>
</svg>
